<!-- by TradingView --><svg width="18" height="18" viewBox="0 0 18 18" xmlns="http://www.w3.org/2000/svg"><path fill="#F0F3FA" d="M0 0h18v18H0z"/><path d="M11 14H5.44C4.64 14 4 13.35 4 12.55V9.86c.83.7 1.88 1.14 3.04 1.14H11v3Zm3-3v1.55c0 .8-.65 1.45-1.44 1.45H12v-3h2Zm-2.54-7h1.08c.8 0 1.46.65 1.46 1.45V9h-3.5c.83-.9 1.35-1.68 1.35-3.05 0-.69-.14-1.34-.4-1.95ZM5.44 4h4c.43.55.69 1.24.69 2 0 1.76-1.38 3-3.09 3C5.56 9 4.31 8.14 4 6.71V5.45c0-.13.02-.25.04-.36.02-.04.04-.08.04-.14C4.3 4.4 4.83 4 5.44 4Z" fill="#D40000"/></svg>