<!-- by TradingView --><svg width="18" height="18" viewBox="0 0 18 18" xmlns="http://www.w3.org/2000/svg"><path fill="#006231" d="M0 0h18v18H0z"/><path d="m12.99 5 .01.01v7.97c0 .01 0 .02-.02.02H5.02c-.01 0-.02 0-.02-.02v-1.67c0-.02.01-.03.03-.02.47.09.86.16 1.18.2a6.67 6.67 0 0 0 2.69-.06c.64-.14 1.2-.39 1.7-.76a3.75 3.75 0 0 0 1.28-1.75c-.38.33-.77.6-1.18.81a4.8 4.8 0 0 1-2.58.55H8.1a8.54 8.54 0 0 1-.53-.05A25.17 25.17 0 0 1 5 9.69v-.48a4.5 4.5 0 0 1 1.7 0c.09 0 .2.03.34.05l.76.14a5.36 5.36 0 0 0 2.4-.07c.48-.12.92-.33 1.3-.62a3.08 3.08 0 0 0 .99-1.38h-.02c-.62.54-1.29.88-2.01 1.03-.2.04-.44.06-.73.07-.4 0-.87-.05-1.38-.16l-.68-.15-1.15-.24a2.2 2.2 0 0 0-1.51.2V5H13Zm-.26 1.3c-.26.23-.55.41-.87.55-.52.22-1.13.26-1.84.12l-.61-.13-.83-.17c-.3-.05-.56-.03-.8.06-.26.09-.48.25-.64.49a1.71 1.71 0 0 0-.26.57h.01a3 3 0 0 1 1.63-.23 20.42 20.42 0 0 1 1.06.18c.32.05.64.06.95.04.33-.02.63-.09.91-.2a2.17 2.17 0 0 0 1.3-1.28Z" fill="#fff"/></svg>