<!-- by TradingView --><svg width="18" height="18" viewBox="0 0 18 18" xmlns="http://www.w3.org/2000/svg"><path fill="#0A2401" d="M0 0h18v18H0z"/><path d="M10.5 4.07 10.25 4l-.8 2.1.3.1c1.55.55 2.09 2.58 1.3 4.22-.4.84-1 1.25-1.56 1.42-.36.11-.7.12-.95.09a1.29 1.29 0 0 0 0-.73h.1a2.13 2.13 0 0 0 1.97-2.27c-.05-1-.74-1.8-1.63-2.01l-.03.1L6 13.74l.54.25.55-1.25a1.14 1.14 0 0 0 1.1-.27c.4.11.93.12 1.47-.04.7-.22 1.44-.74 1.92-1.75.85-1.77.4-4.12-1.36-4.95l.38-.99c.13.06.27.14.39.24.2.17.33.53.33.77h.6c0-.5-.28-1.02-.57-1.26a2.34 2.34 0 0 0-.85-.43Zm-3.16 8.1.47-1.07c.11.1.18.26.19.43a.61.61 0 0 1-.66.64Zm.73-1.66L9.3 7.7c.4.26.69.71.72 1.25.04.85-.6 1.58-1.41 1.62-.19.01-.37-.02-.54-.07Z" fill="#FEF1DE"/></svg>