<!-- by TradingView --><svg width="18" height="18" viewBox="0 0 18 18" xmlns="http://www.w3.org/2000/svg"><path fill="#F0F3FA" d="M0 0h18v18H0z"/><path d="M10 4.19A4.47 4.47 0 0 0 8.72 4H8.6a4.37 4.37 0 0 0-3.25 1.43A4.9 4.9 0 0 0 4 8.87v.26c0 1.3.48 2.53 1.35 3.44A4.47 4.47 0 0 0 8.6 14h.12c.43 0 .86-.06 1.28-.19V4.2Z" fill="#003678"/><path d="M13 4.19A4.47 4.47 0 0 0 11.72 4h-.12c-1.22 0-2.4.51-3.25 1.43A5.02 5.02 0 0 0 7 8.87v.26c0 1.3.48 2.53 1.35 3.44A4.47 4.47 0 0 0 11.6 14h.12c.43 0 .86-.06 1.28-.19V4.2Z" fill="#0C77B3"/><path d="M10 4.3c-.62.24-1.18.62-1.65 1.13A5.02 5.02 0 0 0 7 8.87v.26c0 1.3.48 2.53 1.35 3.44.47.5 1.03.88 1.65 1.13V4.3Z" fill="#001B32"/></svg>