<!-- by TradingView --><svg width="18" height="18" viewBox="0 0 18 18" xmlns="http://www.w3.org/2000/svg"><path fill="#F0F3FA" d="M0 0h18v18H0z"/><path d="M9 3a6 6 0 1 1-4.86 9.52A5.46 5.46 0 1 0 3 9.1V9a6 6 0 0 1 6-6Zm.08 2.16-.3 1.26a4.5 4.5 0 0 1 1.44-.31c.2 0 .53.03.8.14.26.11.5.31.5.65 0 .05-.01.1-.04.16a3.46 3.46 0 0 1-.52.56c-.33.29-.8.62-1.3.97-.52.35-1.1.72-1.64 1.06l-.16.76h2.18v.18H7.82l-.56 2.65h-.18l.56-2.65H6.23c.56-.33 1.08-.71 1.64-1.06l.67-2.83-.25.1c-.68.3-1.31.65-1.69.88l-.09-.15A13.77 13.77 0 0 1 8.6 6.49l.32-1.37.17.04ZM7.81 9.78c-.33.2-.64.47-.93.63h.8l.13-.63Zm2.4-3.5c-.41 0-.94.14-1.47.34L8.08 9.4c.5-.3 1-.63 1.48-.95.5-.35.96-.68 1.29-.96a3.31 3.31 0 0 0 .47-.51.19.19 0 0 0 .03-.08c0-.23-.16-.38-.4-.48-.24-.1-.54-.14-.73-.14Z" fill="#324064"/></svg>