<!-- by TradingView --><svg width="18" height="18" viewBox="0 0 18 18" xmlns="http://www.w3.org/2000/svg"><path fill="#F0F3FA" d="M0 0h18v18H0z"/><path d="m8.13 7.96-.4-.6a.04.04 0 0 1-.02-.03l.8-3.3c0-.01 0-.03.03-.03.01 0 .03 0 .04.02l.41.59v.03l-.78 3.3c0 .02-.01.03-.03.03l-.05-.01ZM9.99 7.94l.53-.53.03-.01h3.41c.02 0 .03 0 .04.02l-.01.04-.54.53-.03.01h-3.4c-.02 0-.04 0-.04-.02v-.04ZM7.53 10.28l-.74.14h-.03l-2.74-2A.04.04 0 0 1 4 8.38c0-.02.02-.03.03-.03l.74-.14h.03l2.75 2c.01 0 .02.02.01.04 0 .02-.01.03-.03.03ZM12.7 13.33l-.67-.3A.04.04 0 0 1 12 13l-1.1-3.24v-.04h.05l.68.3.02.02 1.1 3.24v.04h-.05ZM6.56 13.95l.1-.73.01-.03 2.77-1.96h.04c.02 0 .02.02.02.04l-.1.73-.01.03-2.77 1.96h-.04c-.02 0-.02-.02-.02-.04Z" fill="#2F5A96"/></svg>