<!-- by TradingView --><svg width="18" height="18" viewBox="0 0 18 18" xmlns="http://www.w3.org/2000/svg"><path fill="#0F3572" d="M0 0h18v18H0z"/><path d="M12.2 12.2c-.85.83-2 1.33-3.2 1.33a4.6 4.6 0 0 1-4.53-4.55 4.62 4.62 0 0 1 3.18-4.4c.1.2.17.45.2.65-1.62.48-2.6 2.05-2.6 3.77 0 1.69 1.12 3.2 2.77 3.64a4.16 4.16 0 0 0 3.72-.95c.44-.45 1.02-1.11 1.01-1.79-.01-.71-.53-1.2-1.25-1.21a1.23 1.23 0 0 0-1.1 1.8c.06.11.2.18.3.11.1-.07.17-.2.1-.3-.26-.52.12-1.15.7-1.14.42 0 .77.3.78.72 0 .19-.05.4-.18.54a2.7 2.7 0 0 1-3.78-.12c-.1-.1-.23-.1-.33 0s-.1.23 0 .33a3.07 3.07 0 0 0 3.37.79c-.47.44-1.04.71-1.65.81-.54.07-.98-.2-1.12-.27-.72-.48-1.3-1.28-1.3-2.17a2.82 2.82 0 0 1 3.4-2.69c.1.03.2.03.27.07.3.1.64 0 .81-.3.1-.21.13-.42.03-.59 0-.03-.33-.91-1.31-1.66a4.5 4.5 0 0 1 3.04 4.33 4.67 4.67 0 0 1-1.32 3.25ZM9.96 4a.37.37 0 0 0-.41.24c-.07.17 0 .34.17.45a3.68 3.68 0 0 1 1.59 1.66c.03.04.03.07.03.07.03.14 0 .2 0 .24-.03.03-.1.13-.24.1l-.33-.1C8.8 6.22 6.78 7.8 6.8 9.78c.02.98.6 1.89 1.38 2.45A3.25 3.25 0 0 1 5.72 9c0-1.56.81-2.8 2.2-3.3.03.21.03.45.03.65 0 .14.1.24.24.24.13 0 .24-.1.24-.24a5.81 5.81 0 0 0-.44-2.07.4.4 0 0 0-.17-.17.21.21 0 0 0-.2 0A5.05 5.05 0 0 0 9 14c1.3-.01 2.56-.52 3.5-1.47A4.95 4.95 0 0 0 14 8.97 4.93 4.93 0 0 0 9.95 4Z" fill="#fff"/></svg>