<!-- by TradingView --><svg width="18" height="18" viewBox="0 0 18 18" xmlns="http://www.w3.org/2000/svg"><path fill="#0D3572" d="M0 0h18v18H0z"/><path d="M14 8.95A5.03 5.03 0 0 1 9 14c-2.76 0-5-2.26-5-5.05C4 6.65 5.52 4.7 7.6 4.1c.14-.06.3 0 .36.12.2.4.44 1.14.47 2.07 0 .13-.11.24-.24.24a.25.25 0 0 1-.25-.25c0-.2-.03-.4-.05-.6a3.45 3.45 0 0 0 .37 6.63A2.85 2.85 0 0 1 6.9 9.83c0-1.2.51-2.02 1.16-2.54.64-.51 1.4-.73 1.91-.73.48 0 .74.05.92.12l.19.07.06.01c.08 0 .12-.01.13-.02 0 0 .03-.04.03-.17a1 1 0 0 0-.16-.43c-.11-.2-.27-.42-.46-.64-.3-.36-.65-.71-.93-.97a.3.3 0 0 1-.06-.37.3.3 0 0 1 .34-.15c2.2.67 3.97 2.36 3.97 4.94ZM7.58 4.57a4.6 4.6 0 0 0-3.14 4.38c0 2.54 2.04 4.6 4.56 4.6a4.58 4.58 0 0 0 4.56-4.6c0-2-1.26-3.7-3.02-4.33l.52.57c.19.23.37.47.5.7.13.22.23.46.23.68 0 .22-.06.41-.2.54a.67.67 0 0 1-.45.15.61.61 0 0 1-.24-.05l-.16-.07a2.32 2.32 0 0 0-.77-.09c-.4 0-1.06.18-1.6.62a2.65 2.65 0 0 0-.99 2.17c0 .81.36 1.4.81 1.8.45.4 1.04.61 1.4.7.64-.11 1.22-.4 1.69-.83a3.24 3.24 0 0 1-3.36-.76c-.1-.09-.07-.24.03-.32.11-.09.26-.07.36.03.33.31.99.74 1.9.74 1.4 0 1.9-.82 1.9-1.24a.8.8 0 0 0-.83-.79.7.7 0 0 0-.6.3.99.99 0 0 0-.18.55c0 .06 0 .13.02.2.04.13.05.3-.04.4-.09.1-.24.11-.31 0a1.18 1.18 0 0 1-.16-.6c0-.25.1-.58.29-.85.2-.27.53-.49.98-.49.91 0 1.31.77 1.31 1.28 0 .23-.07.48-.21.7A3.53 3.53 0 0 1 9 12.85a3.88 3.88 0 0 1-3.86-3.9 3.9 3.9 0 0 1 2.66-3.7c-.06-.27-.14-.5-.22-.67Z" fill="#fff"/></svg>