<!-- by TradingView --><svg width="18" height="18" viewBox="0 0 18 18" xmlns="http://www.w3.org/2000/svg"><path fill="#F0F3FA" d="M0 0h18v18H0z"/><path d="M4 9.86c.83.7 1.88 1.11 3.04 1.11h3.73V14H5.44C4.64 14 4 13.35 4 12.55V9.86Zm10 2.69c0 .8-.65 1.45-1.44 1.45h-.31v-3H14v1.55ZM12.54 4c.8 0 1.44.65 1.44 1.45v4H10.5A5.12 5.12 0 0 0 11.46 4h1.08Zm-3.1 0c.43.55.68 1.24.69 2 0 1.76-1.4 3.19-3.1 3.19A3.1 3.1 0 0 1 4 6.7V5.45c0-.13.02-.25.04-.36a.3.3 0 0 0 .04-.14C4.3 4.4 4.83 4 5.44 4h4Z" fill="#D40000"/></svg>