<!-- by TradingView --><svg width="18" height="18" viewBox="0 0 18 18" xmlns="http://www.w3.org/2000/svg"><path fill="#F0F3FA" d="M0 0h18v18H0z"/><path d="M11.02 4.42a6.84 6.84 0 0 1-.54 1.4c-.24.45-.55.84-.93 1.18a2.1 2.1 0 0 0-1.48.14A7.8 7.8 0 0 1 6.85 4.5a4.95 4.95 0 0 1 4.17-.07Z" fill="#FCAA39"/><path d="m12.45 5.38-1.86 2.29A2.13 2.13 0 0 0 9.55 7c.38-.34.69-.73.93-1.18.2-.37.38-.84.54-1.4.53.24 1 .56 1.43.96Z" fill="#C9B759"/><path d="M6.85 4.49a7.8 7.8 0 0 0 1.22 2.65c-.41.22-.72.53-.93.94A8.99 8.99 0 0 0 5.3 5.64c.44-.49.96-.87 1.55-1.15Z" fill="#F06B50"/><path d="M12.45 5.38a4.96 4.96 0 0 1 1.4 4.83A8.03 8.03 0 0 0 11 9.55c.16-.71.03-1.34-.4-1.88l1.85-2.3Z" fill="#7DC083"/><path d="M5.3 5.64a8.99 8.99 0 0 1 1.84 2.44c-.13.27-.2.55-.21.84a.65.65 0 0 1-.2.04.5.5 0 0 1-.17-.04.44.44 0 0 0-.21-.03c-.54.11-.9.17-1.05.17H4a4.95 4.95 0 0 1 1.3-3.42Z" fill="#E20A59"/><path d="M6.93 8.92c-.01.42.09.8.3 1.17-1.12.32-2.05.65-2.78.98a4.95 4.95 0 0 1-.45-2c.44-.02.87-.02 1.3-.01.16 0 .5-.06 1.05-.17.05 0 .12 0 .21.03a.5.5 0 0 0 .17.04c.07 0 .13-.02.2-.04Z" fill="#9F598D"/><path d="M13.85 10.2a4.91 4.91 0 0 1-2.62 3.27A4.97 4.97 0 0 1 9 14c-.03-.98-.04-1.95-.02-2.92A2.1 2.1 0 0 0 11 9.55c.99.04 1.94.26 2.85.66Z" fill="#5AC4E7"/><path d="M7.24 10.09c.4.61.98.94 1.74.99-.02.97-.01 1.94.02 2.92a5.01 5.01 0 0 1-4.55-2.93 20.6 20.6 0 0 1 2.79-.98Z" fill="#6B79B8"/></svg>