<!-- by TradingView --><svg width="18" height="18" viewBox="0 0 18 18" xmlns="http://www.w3.org/2000/svg"><path fill="#F0F3FA" d="M0 0h18v18H0z"/><path d="M7.75 13.33c.2-.05.36-.18.48-.41.18-.35.3-.64.38-.86.3-.93.56-1.94.77-3.04a125.7 125.7 0 0 0 .88-5A.06.06 0 0 1 10.3 4h1.38a.03.03 0 0 1 .03.01v.03l-.03.21c-.47 2.8-.87 4.86-1.23 6.21a8.44 8.44 0 0 1-.89 2.26c-.56.91-1.17 1.14-1.82.67l-.01-.01a.03.03 0 0 1 0-.04h.02Z" fill="#004984"/><path d="M9.21 13.64v-.03l.02-.01.23-.02h.02c.45-.19.83-.72 1.16-1.6.38-1.06.7-2.21.98-3.45A145.76 145.76 0 0 0 12.55 4l.03-.01h1.4l.01.01v.01l.01.02a77.9 77.9 0 0 1-1.46 6.41c-.25.89-.59 1.69-1.01 2.41-.17.3-.4.57-.71.83-.5.43-1.04.41-1.6-.05ZM6.6 5.71a5 5 0 0 0-.37 1.22 166.87 166.87 0 0 0-1.1 5.67h-.62l-.01-.01a.02.02 0 0 1 0-.01l1.1-5.62c.14-.67.46-1.1.98-1.28h.01l.01.01v.02Z" fill="#004984"/><path d="m8.35 12.02-.06-.14c-.3-.9-.69-2.2-1.18-3.93a9.18 9.18 0 0 0-.53-1.45.17.17 0 0 1-.02-.1c.04-.23.13-.45.25-.65a.12.12 0 0 1 .04-.04.1.1 0 0 1 .14.03c.13.16.24.33.3.48.22.46.41.98.6 1.56l.87 2.93c.02.06.02.12 0 .18l-.34 1.12-.01.02h-.04l-.02-.01Z" fill="#DD0208"/><path d="M5.76 6.04h.01l.01.01a.02.02 0 0 1 0 .03c-.2.2-.37.45-.48.73a317.08 317.08 0 0 0-1.17 5.78h-.61a.02.02 0 0 1-.02-.02l.83-4.2a6.6 6.6 0 0 1 .37-1.42c.24-.44.6-.75 1.06-.9Z" fill="#004984"/><path d="m6.33 7.6.1.37c.52 1.8.93 3.1 1.25 3.94.1.27.21.48.33.63a.29.29 0 0 1-.02.37l-.19.2a.23.23 0 0 1-.08.06.22.22 0 0 1-.2-.02.24.24 0 0 1-.07-.07 5.65 5.65 0 0 1-.6-1.27c-.28-.82-.55-1.65-.8-2.5a.81.81 0 0 1-.02-.38 61.9 61.9 0 0 1 .3-1.35v.01Z" fill="#DD0208"/></svg>