<!-- by TradingView --><svg width="18" height="18" viewBox="0 0 18 18" xmlns="http://www.w3.org/2000/svg"><path fill="#F0F3FA" d="M0 0h18v18H0z"/><path d="m13.98 11.01.02.03v1.5c-.01.45-.21.83-.6 1.1a1.99 1.99 0 0 1-1.39.34l-.01-.02v-2.95h1.98ZM4.05 9.88C5.2 10.83 6.55 11.03 8 11h2.98l.01.03v2.93a.04.04 0 0 1-.01.03.05.05 0 0 1-.03 0H5.89c-.41.02-.7-.02-.9-.09-.66-.27-1-.81-.99-1.64a216.08 216.08 0 0 0 .02-2.38.03.03 0 0 1 .03 0Zm5.32-5.87c.03 0 .05 0 .07.02.03 0 .04.02.06.04a3.08 3.08 0 0 1-.4 4.14c-.49.44-1.07.7-1.72.77a3.01 3.01 0 0 1-1.86-.37A3.06 3.06 0 0 1 4 6.56v-.82c-.01-.37.02-.64.09-.8.16-.4.44-.68.84-.83.2-.08.5-.12.91-.1h3.52Zm2.5 0c.6-.02 1 .01 1.2.1.4.16.67.41.83.77.07.16.1.42.1.76A927.76 927.76 0 0 0 13.99 9l-.03.01H10.55l-.01-.02v-.03a4.48 4.48 0 0 0 .93-4.93L11.5 4h.38Z" fill="#D40000"/></svg>