<!-- by TradingView --><svg width="18" height="18" viewBox="0 0 18 18" xmlns="http://www.w3.org/2000/svg"><path fill="#F54F07" d="M0 0h18v18H0z"/><path d="M9 6.92a2.08 2.08 0 0 0 .42-.63c.11-.25.2-.52.28-.8A14.12 14.12 0 0 0 10.05 4l.49.13v.01A15 15 0 0 1 10.09 6c-.08.24-.18.45-.3.65-.13.21-.26.34-.4.39a33.49 33.49 0 0 1-.75 0c-.15-.05-.29-.18-.41-.39-.12-.2-.22-.41-.3-.65a8.98 8.98 0 0 1-.46-1.86L7.95 4a.02.02 0 0 1 .01 0 .02.02 0 0 1 0 .01c.1.52.2 1.01.34 1.48.08.28.17.55.28.8a2.08 2.08 0 0 0 .41.63H9ZM4.55 6.7c.44.24.87.46 1.3.64.49.22.91.34 1.27.38.1 0 .2 0 .3-.02h.01v-.03a2.12 2.12 0 0 0-.25-.76 6.48 6.48 0 0 0-.44-.7 13.73 13.73 0 0 0-.9-1.17v-.01l.39-.29a.03.03 0 0 1 .03 0c.33.38.62.76.9 1.15.2.31.37.6.5.9.07.17.11.35.11.51 0 .1-.04.2-.12.3l-.31.4a.34.34 0 0 1-.16.1.66.66 0 0 1-.2.04c-.26.02-.57-.04-.94-.17a8.85 8.85 0 0 1-1.72-.8l.2-.46a.02.02 0 0 1 .01-.01.02.02 0 0 1 .02 0ZM11.74 7.5a8.1 8.1 0 0 0 1.73-.8l.01.01.2.46a.02.02 0 0 1-.01.03c-.36.19-.71.37-1.07.52-.32.14-.61.25-.88.33-.56.15-.91.14-1.07-.06l-.33-.43a.44.44 0 0 1-.09-.2c-.01-.13.01-.28.07-.46.1-.25.24-.55.46-.88a12.14 12.14 0 0 1 1-1.28 4.37 4.37 0 0 1 .4.32A16.56 16.56 0 0 0 11 6.62a4.6 4.6 0 0 0-.23.42 1.74 1.74 0 0 0-.2.67h.01a9.07 9.07 0 0 1 .28.02 2.41 2.41 0 0 0 .5-.09 63.62 63.62 0 0 1 .39-.13ZM4.7 11a25.05 25.05 0 0 0 .91-.45 6.89 6.89 0 0 0 1.2-.82 1.34 1.34 0 0 0 .23-.3v-.01a1 1 0 0 0-.31-.17 4.64 4.64 0 0 0-.93-.19A12.03 12.03 0 0 0 4 9.04l.02-.5v-.02h.03l.86-.02c.38 0 .75.03 1.1.08.26.04.48.1.68.18l.24.14c.05.04.1.09.13.15.02.03.03.1.06.2l.09.39c.04.17-.03.36-.2.56a5.99 5.99 0 0 1-1.11.8 14.68 14.68 0 0 1-1.19.58l-.02-.02-.22-.43a.02.02 0 0 1 0-.02l.01-.01a.46.46 0 0 0 .1-.04l.02-.01.06-.02.05-.03ZM13.97 8.5v.01h.01l.02.52v.01a.01.01 0 0 1-.02.01c-.55-.03-1.1-.03-1.64 0a5.26 5.26 0 0 0-1.1.21 1.12 1.12 0 0 0-.28.16v.01c.1.18.25.35.48.53a5.8 5.8 0 0 0 1.22.74 16.77 16.77 0 0 0 .87.41v.01l-.23.44h-.01l-.07-.01s-.02 0-.03-.02a15.62 15.62 0 0 1-1.15-.57 5.26 5.26 0 0 1-.8-.53c-.2-.16-.33-.32-.42-.5a.43.43 0 0 1-.03-.27l.1-.5c.03-.1.08-.19.17-.26.05-.04.1-.08.16-.1a1.88 1.88 0 0 1 .5-.18c.19-.04.37-.06.55-.08.47-.05 1.04-.06 1.7-.03ZM5.56 12.65a.02.02 0 0 1 0-.03 15.83 15.83 0 0 1 1.25-1.5c.13-.13.27-.25.41-.35.16-.11.32-.18.46-.21.1-.02.18-.01.27.03a4.38 4.38 0 0 1 .34.17l.16.08c.09.06.15.15.2.26.06.19.08.42.07.69 0 .23-.02.44-.05.64A12.88 12.88 0 0 1 8.32 14l-.5-.1a.02.02 0 0 1 0-.01c.12-.46.23-.92.31-1.37.06-.32.1-.64.1-.94.02-.17 0-.34-.02-.51a1 1 0 0 0-.08-.26H8.1a2.1 2.1 0 0 0-.59.35 5.27 5.27 0 0 0-.73.74 14.32 14.32 0 0 0-.85 1.08l-.37-.33ZM9.66 13.98c-.1-.35-.18-.7-.24-1.05-.1-.48-.15-.9-.15-1.24 0-.13.01-.26.03-.38.04-.19.1-.33.2-.43a.55.55 0 0 1 .15-.1 3.3 3.3 0 0 0 .23-.1l.2-.1a.28.28 0 0 1 .12-.03c.1 0 .2.02.3.06.23.11.47.29.72.54a9.16 9.16 0 0 1 1.23 1.5l-.39.33a.01.01 0 0 1-.01 0c-.44-.62-.86-1.14-1.26-1.54a3.28 3.28 0 0 0-.79-.6 4.62 4.62 0 0 0-.14-.03c-.05.14-.08.3-.1.46l.01.53a11.91 11.91 0 0 0 .4 2.1l-.48.1h-.02v-.02Z" fill="#fff"/></svg>