<!-- by TradingView --><svg width="18" height="18" viewBox="0 0 18 18" xmlns="http://www.w3.org/2000/svg"><path fill="#F0F3FA" d="M0 0h18v18H0z"/><path d="M8.83 5.47c.46 0 .84-.33.84-.73 0-.41-.38-.74-.84-.74-.46 0-.83.33-.83.74 0 .4.37.73.83.73ZM11.09 6.54c.45 0 .82-.32.82-.73 0-.4-.37-.73-.82-.73-.46 0-.83.33-.83.73 0 .4.37.73.83.73ZM6.67 6.35c.36 0 .66-.26.66-.59 0-.32-.3-.58-.66-.58-.37 0-.67.26-.67.58 0 .33.3.6.67.6ZM13.17 7.82c.46 0 .83-.33.83-.73 0-.4-.37-.74-.83-.74-.46 0-.84.33-.84.74 0 .4.38.73.84.73ZM9 7.53c.37 0 .67-.26.67-.59 0-.32-.3-.59-.67-.59-.37 0-.67.27-.67.6 0 .32.3.58.67.58ZM4.33 7.24c.19 0 .34-.14.34-.3 0-.16-.15-.3-.34-.3-.18 0-.33.14-.33.3 0 .16.15.3.33.3ZM11 8.7c.37 0 .67-.26.67-.58 0-.33-.3-.6-.67-.6-.37 0-.67.27-.67.6 0 .32.3.59.67.59ZM6.83 8.41c.28 0 .5-.2.5-.44s-.22-.44-.5-.44c-.27 0-.5.2-.5.44s.23.44.5.44ZM13.17 9.88c.46 0 .83-.33.83-.73 0-.4-.37-.74-.83-.74-.46 0-.84.33-.84.74 0 .4.38.73.84.73ZM9.17 9.3c.27 0 .5-.2.5-.45 0-.24-.23-.44-.5-.44-.28 0-.5.2-.5.44 0 .25.22.44.5.44ZM4.33 9.3c.19 0 .34-.14.34-.3 0-.16-.15-.3-.34-.3-.18 0-.33.14-.33.3 0 .16.15.3.33.3ZM11 10.76c.37 0 .67-.26.67-.58 0-.33-.3-.6-.67-.6-.37 0-.67.27-.67.6 0 .32.3.58.67.58ZM6.83 10.47c.28 0 .5-.2.5-.44s-.22-.44-.5-.44c-.27 0-.5.2-.5.44s.23.44.5.44ZM13.17 11.94c.46 0 .83-.33.83-.73 0-.41-.37-.74-.83-.74-.46 0-.84.33-.84.74 0 .4.38.73.84.73ZM9 11.65c.37 0 .67-.27.67-.6 0-.32-.3-.58-.67-.58-.37 0-.67.26-.67.59 0 .32.3.59.67.59ZM4.33 11.35c.19 0 .34-.13.34-.3 0-.15-.15-.29-.34-.29-.18 0-.33.14-.33.3 0 .16.15.3.33.3ZM11.17 12.82c.46 0 .83-.33.83-.73 0-.4-.37-.74-.83-.74-.46 0-.84.33-.84.74 0 .4.38.73.84.73ZM6.67 12.82c.36 0 .66-.26.66-.58 0-.33-.3-.6-.66-.6-.37 0-.67.27-.67.6 0 .32.3.58.67.58ZM8.83 14c.46 0 .84-.33.84-.74 0-.4-.38-.73-.84-.73-.46 0-.83.33-.83.73 0 .41.37.74.83.74Z" fill="#2261F6"/></svg>