<!-- by TradingView --><svg width="18" height="18" viewBox="0 0 18 18" xmlns="http://www.w3.org/2000/svg"><path fill="#F0F3FA" d="M0 0h18v18H0z"/><path d="M10.49 7.45c-.01.1 0 .19.01.27 0 .02.02.03.03.04 0 .02.02.03.03.03h.04l.04-.03.05-.09c.03.1.07.16.11.2.03.03.06.03.08 0a.62.62 0 0 1 .34-.15c.1-.02.2.03.3.15.14.17.24.31.3.4.07.15.18.28.3.38.22.2.44.37.64.53-.18.3-.4.53-.67.67-.06.03-.06.07 0 .1.36.2.7.15 1.04-.17.04-.04.07-.03.07.04s.03.12.08.14c.02 0 .06 0 .14-.04.24-.12.43-.04.6.22 0 .08.06.11.15.12-.15.03-.32.05-.48.02-.4-.09-.82-.1-1.22-.03a.66.66 0 0 1-.34-.04l-.33-.1a.43.43 0 0 1-.32-.16c-.14-.15-.4-.24-.58-.4l-.2-.2c-.02-.01-.04 0-.06.03a.46.46 0 0 1-.1.16.09.09 0 0 1-.06.02c-.02 0-.03 0-.05-.02-.32-.25-.6-.5-.83-.78-.2-.24-.32-.1-.53-.08a5.3 5.3 0 0 1-1.22-.02c-.04 0-.08 0-.12.02a.28.28 0 0 0-.11.08c-.1.13-.27.21-.5.26H7.1v.02c.06.06.17.11.33.16.04.01.07.04.12.1.02.02.03.05.04.09.01.03 0 .05-.03.04l-.97-.3c-.31-.1-.39.08-.62.25-.23.16-.39.3-.49.4a.77.77 0 0 1-.79.2c-.03-.02-.05-.04-.06-.07-.06-.15-.15-.24-.26-.28-.03-.01-.04-.04-.02-.08.16-.36.44-.78.77-.76a.1.1 0 0 0 .08-.03c.19-.22.42-.57.7-.57h.03l.02.03v.05a.61.61 0 0 1-.22.42c-.06.05-.1.08-.1.11-.05.14-.01.3.13.32.3.04.32-.07.47-.33l.03-.03h.05l.03.03c.1.18.22.14.36.04.08-.08.16-.11.21-.11.22 0 .22-.04.01-.11a.57.57 0 0 1-.18-.12A1.6 1.6 0 0 0 6 8.02c.1-.14.2-.3.28-.51 0-.02.02-.04.04-.05a.08.08 0 0 1 .05-.02l.05.01.03.05.24.53.02.02.03.01.03-.01.02-.03.09-.21c.03-.05.06-.08.1-.06.02 0 .04.03.03.07 0 .04 0 .08.02.1.02.05.03.05.05 0 .04-.15.1-.27.17-.39l-.13.67v.06l.02.03.02.02a.03.03 0 0 0 .03 0l.02-.02a.56.56 0 0 1 .23-.32c.03-.02.04-.04.03-.08-.04-.42.04-.83.25-1.22 0 .17.11.35.34.51.02.02.04.03.06.02.02 0 .04-.03.06-.05l.07.14c.01.03.04.05.06.06.02.02.05.02.08.02.02 0 .05-.02.07-.05a.19.19 0 0 0 .04-.08l.09-.4c.02-.09 0-.1-.06-.07-.03.02-.06.03-.09.01l-.01-.01-.01-.02a.08.08 0 0 1 0-.06c.06-.12.07-.22.04-.3l.44-.37.03-.02h.04l.03.02.03.04c.14.3.3.52.37.85a8.86 8.86 0 0 0 .27.9h.02l.01-.02.1-.15c0-.03.03-.04.05-.03l.14.05a.1.1 0 0 0 .08 0l.4-.2Z" fill="#B4B7B9"/><path d="M8.47 6.4c.03.07.02.17-.04.3a.08.08 0 0 0 0 .07l.02.01c.03.02.06.01.09 0 .06-.05.08-.03.06.05l-.09.41c0 .03-.02.06-.04.08a.13.13 0 0 1-.07.05c-.03 0-.06 0-.08-.02a.15.15 0 0 1-.06-.06l-.07-.14c.04-.36.14-.6.28-.75ZM7.73 6.67c-.21.39-.3.8-.25 1.22 0 .04 0 .06-.03.08a.56.56 0 0 0-.24.32v.02h-.05l-.01-.02-.02-.03V8.2l.13-.67.2-.57c.08-.24.16-.34.27-.3ZM10.7 7.67l-.06.09-.04.03h-.04a.07.07 0 0 1-.04-.03.1.1 0 0 1-.02-.04.84.84 0 0 1-.01-.27c.1-.1.17-.02.2.22Z" fill="#302E2F"/><path d="M6.01 8.02c.27.07.51.23.73.47.06.05.15.1.2.12.2.07.2.11-.02.1-.05 0-.13.04-.21.11-.14.11-.27.15-.37-.03a.07.07 0 0 0-.02-.03h-.05l-.03.03c-.15.26-.18.37-.47.33-.14-.02-.18-.18-.13-.32 0-.03.04-.06.1-.1a.61.61 0 0 0 .23-.46l-.01-.02-.02-.02h-.02c-.29 0-.52.34-.71.56a.1.1 0 0 1-.08.03c-.33-.02-.61.4-.77.76-.02.04-.01.07.02.08.11.04.2.13.26.28.01.03.03.05.06.06.24.07.55.06.8-.2.09-.1.25-.23.48-.4.23-.16.3-.34.62-.24l.97.3c.03 0 .04 0 .03-.04a.25.25 0 0 0-.05-.1c-.04-.05-.07-.08-.1-.09a.9.9 0 0 1-.34-.16v-.02c.24-.05.4-.13.51-.26a.28.28 0 0 1 .1-.08.23.23 0 0 1 .13-.02c.34.05.75.06 1.22.02.2-.01.33-.16.53.08a5.02 5.02 0 0 0 .88.8l.06-.02a.46.46 0 0 0 .1-.16c.02-.04.04-.04.07-.02l.2.18c.18.17.43.26.57.41.09.1.2.16.32.16.03 0 .14.03.33.1.11.04.22.05.33.04.41-.07.82-.06 1.23.03.16.03.33 0 .48-.02.23.02.48.02.67.16.22.17.47.46.7.46.15 0 .29 0 .4-.02.03 0 .05.01.05.05v.04c.01.03-.03.05-.03.05H2.03s-.04-.02-.03-.05v-.03l.02-.02h.01c.41-.04.76-.03 1.12-.37.1-.1.36-.44.77-1.02.13-.19.26-.34.37-.45.25-.23.29-.54.55-.75.25-.2.46-.33.64-.4.03-.02.05-.01.08.02l.02.02c.02.03.05.03.08 0a.4.4 0 0 0 .1-.17v-.02l.03-.02h.02l.01.02.2.26Z" fill="#302E2F"/><path d="M12.76 9.18c.19.09.4.1.56.22a3.98 3.98 0 0 1 .75.76h.04-.01c-.03 0-.06 0-.09-.02-.16-.26-.35-.34-.6-.22-.07.03-.11.05-.13.04-.05-.02-.08-.07-.08-.14s-.03-.08-.07-.04c-.33.32-.68.38-1.04.18-.06-.04-.06-.08 0-.11.27-.14.5-.37.67-.67Z" fill="#302E2F"/></svg>