<!-- by TradingView --><svg width="18" height="18" viewBox="0 0 18 18" xmlns="http://www.w3.org/2000/svg"><path fill="#D2F1E2" d="M0 0h18v18H0z"/><path d="M5.7 7.86v.01a5.9 5.9 0 0 0-.05 3.37 5 5 0 0 0 1.8 2.78c.81.62 1.8.88 2.95.8v.01a4.8 4.8 0 0 1-2.72-.06 3.84 3.84 0 0 1-2.06-1.73 4.6 4.6 0 0 1-.64-2.58 6.1 6.1 0 0 1 .72-2.6Zm.16 2.67A6 6 0 0 0 8.28 13c1.07.58 2.1.8 3.13.66 1.08-.15 2-.68 2.76-1.6a4.75 4.75 0 0 1-1.95 1.93c-.83.42-1.72.52-2.67.3a4.62 4.62 0 0 1-2.66-1.75 6.68 6.68 0 0 1-1.03-2Zm1.58-4.67v.01l-.47.29A6.03 6.03 0 0 0 5.1 8.12c-.5.83-.75 1.7-.78 2.6a4.13 4.13 0 0 0 1.65 3.46 4.63 4.63 0 0 1-1.84-1.76 3.91 3.91 0 0 1-.46-2.53c.13-.97.57-1.82 1.3-2.56a5.94 5.94 0 0 1 2.47-1.47Zm7.4 1.74c.22.96.21 1.82-.03 2.6a3.8 3.8 0 0 1-1.52 2.03c-.8.54-1.7.81-2.7.8a6.04 6.04 0 0 1-2.76-.73h.02c1.09.36 2.23.38 3.4.05a4.98 4.98 0 0 0 2.84-1.9c.56-.78.8-1.73.74-2.84Zm-2.82-3.8a4.64 4.64 0 0 1 1.84 1.77c.44.78.6 1.63.47 2.55A4.44 4.44 0 0 1 13 10.7a5.99 5.99 0 0 1-2.47 1.46l.46-.28a6.05 6.05 0 0 0 1.89-1.97c.5-.84.76-1.71.78-2.62a4.15 4.15 0 0 0-1.66-3.47V3.8ZM7.38 4.97a6.03 6.03 0 0 1 2.76.72h-.02a5.73 5.73 0 0 0-3.4-.03A4.97 4.97 0 0 0 3.9 7.57a4.28 4.28 0 0 0-.74 2.84c-.22-.94-.21-1.8.02-2.58A3.8 3.8 0 0 1 4.7 5.8a4.56 4.56 0 0 1 2.69-.83Zm.18-1.8c1.01-.24 1.92-.23 2.73.05.87.3 1.57.88 2.08 1.74.47.77.69 1.63.66 2.59a6.12 6.12 0 0 1-.73 2.6v-.01c.35-1.1.36-2.23.05-3.38a5.02 5.02 0 0 0-1.82-2.78 4.25 4.25 0 0 0-2.96-.8Zm-1.8.87a3.83 3.83 0 0 1 2.68-.3c1.08.24 1.97.82 2.68 1.73a6.7 6.7 0 0 1 1.03 2A6.03 6.03 0 0 0 9.7 5.02a5.02 5.02 0 0 0-3.14-.64c-1.08.15-2 .69-2.76 1.62H3.8v-.01a4.76 4.76 0 0 1 1.96-1.94Zm1.69-.84h-.02.02Z"/></svg>