<!-- by TradingView --><svg width="18" height="18" viewBox="0 0 18 18" xmlns="http://www.w3.org/2000/svg"><path fill="#D2F1E2" d="M0 0h18v18H0z"/><path d="M14.36 7.52c0-2.06-1.67-3.42-2.5-3.85.6.45 1.82 1.76 1.82 3.42 0 2.73-2.09 4.5-3.13 5.06 1.94-.55 3.81-2.05 3.81-4.63ZM3.64 10.48c0 2.06 1.67 3.42 2.5 3.85a4.62 4.62 0 0 1-1.82-3.42c0-2.73 2.09-4.5 3.13-5.06-1.94.55-3.81 2.05-3.81 4.63Z"/><path d="M11.58 4.15c-1.41-1.44-3.48-1.23-4.34-.94a4.4 4.4 0 0 1 3.58 1.11c1.87 1.91 1.66 4.62 1.32 5.74.95-1.75 1.2-4.1-.56-5.9ZM6.15 13.85c1.5 1.44 3.7 1.23 4.61.94-.76.11-2.6.05-3.8-1.11-1.99-1.91-1.76-4.62-1.4-5.74-1.02 1.75-1.29 4.1.59 5.9Z"/><path d="M7.52 3.64c-2.06 0-3.42 1.67-3.85 2.5A4.62 4.62 0 0 1 7.1 4.32c2.73 0 4.5 2.09 5.05 3.13-.54-1.94-2.04-3.81-4.62-3.81ZM10.48 14.36c2.06 0 3.42-1.67 3.85-2.5a4.62 4.62 0 0 1-3.42 1.82c-2.73 0-4.5-2.09-5.05-3.13.54 1.94 2.04 3.81 4.62 3.81Z"/><path d="M4.14 6.38c-1.43 1.5-1.22 3.7-.93 4.62a4.9 4.9 0 0 1 1.1-3.8A5.73 5.73 0 0 1 10 5.8c-1.73-1.02-4.07-1.3-5.86.58ZM13.86 11.62c1.43-1.5 1.22-3.7.93-4.62.11.77.05 2.6-1.1 3.8A5.73 5.73 0 0 1 8 12.2c1.73 1.02 4.07 1.3 5.86-.58Z"/></svg>