<!-- by TradingView --><svg width="18" height="18" viewBox="0 0 18 18" xmlns="http://www.w3.org/2000/svg"><path fill="#F0F3FA" d="M0 0h18v18H0z"/><path d="M8.42 7h1.3c.71 0 1.28.52 1.28 1.17h-.4a.84.84 0 0 0-.87-.84h-1.3c-.61 0-1.07.15-1.07.6 0 .5 1.25.72 1.67.83l.2.05c.66.17 1.77.44 1.77 1.16 0 .69-.83 1.03-1.56 1.03H8.02c-.57-.02-1.02-.32-1.02-.83v-.5h.4v.5c0 .33.28.48.63.5h1.4c.5 0 1.17-.2 1.17-.7 0-.52-1.03-.73-1.47-.84l-.19-.05C8.3 8.9 7 8.67 7 7.94c0-.65.72-.97 1.42-.94Z" fill="#515151"/><path d="M5.14 13H6a10.57 10.57 0 0 1-.02-8h-.87a7.74 7.74 0 0 0 .03 8ZM12.86 13H12a10.57 10.57 0 0 0 .02-8h.87a7.74 7.74 0 0 1-.03 8Z" fill="#CB2527"/></svg>