<!-- by TradingView --><svg width="18" height="18" viewBox="0 0 18 18" xmlns="http://www.w3.org/2000/svg"><path fill="#F0F3FA" d="M0 0h18v18H0z"/><path d="m6.94 5.61 2.35 1.3-.58-1.94L7.53 4l-.59 1.61ZM9.3 4.97l1.17 2.26.59-1.62L10.47 4l-1.18.97ZM11.35 5.61l-.3 2.9 1.77-1.6V5.6h-1.47ZM12.53 8.2l-1.47 1.93h1.76L14 8.83l-1.47-.64ZM12.24 10.45l-2.06.65 1.17.96h1.47l-.58-1.6ZM11.06 12.39l-2.35-.97.29 1.61 1.47.97.59-1.61ZM8.7 13.03l-1.17-2.26-.59 1.94.59 1.29 1.18-.97ZM6.65 12.06H4.88l.6-1.29 1.17-1.29v2.58ZM5.47 10.13 4 8.83l1.18-.64h1.76l-1.47 1.94ZM6.65 5.94H4.88l.88 1.6 2.06-.64-1.17-.96Z" fill="#F9AE00"/></svg>