<!-- by TradingView --><svg width="18" height="18" viewBox="0 0 18 18" xmlns="http://www.w3.org/2000/svg"><path fill="#F0F3FA" d="M0 0h18v18H0z"/><path d="M8.96 4c.64 0 1.09.03 1.34.1.52.16.95.43 1.28.84.2.24.32.5.37.79.18.91-.16 1.64-1 2.19h-.02v.03l.02.01c.13.06.26.16.4.3a1.98 1.98 0 0 1 .58 1.04l-.02.01h-.9a4.3 4.3 0 0 0-.35-.5 1.42 1.42 0 0 0-.93-.48c-.4-.01-.66 0-1.29-.02l-1.27.01-.03.01-.01.03v.93l-.02.01H7.1l-.02.01H6L6 9.27V4.01h.03L8.96 4Zm-1.8.76h-.02l-.01.03v2.75l.01.02.03.01h2.3a1.6 1.6 0 0 0 1.11-.4c.16-.14.27-.29.35-.46.08-.16.12-.34.12-.53v-.05c0-.36-.17-.71-.46-.97-.3-.26-.7-.4-1.12-.4h-2.3Z" fill="#96D600"/><path d="M12 10.04c-.2.95-.79 1.57-1.74 1.86-.25.08-.6.1-1.05.1a306.17 306.17 0 0 0-3.19-.02.06.06 0 0 1-.02-.05v-1.88c0-.01 0-.03.02-.04l.03-.01h1.03l.03.01.01.03v1.06s0 .02.02.03l.03.01h2.14c.29.01.53-.02.71-.1.48-.17.8-.5.96-1L11 10h.97a.03.03 0 0 1 .03.01v.02ZM11.95 13.21h-5.9c-.03 0-.05.02-.05.05v.7c0 .02.02.04.05.04h5.9c.03 0 .05-.02.05-.04v-.7c0-.03-.02-.05-.05-.05Z" fill="#8B8279"/></svg>