<!-- by TradingView --><svg width="18" height="18" viewBox="0 0 18 18" xmlns="http://www.w3.org/2000/svg"><path fill="#F0F3FA" d="M0 0h18v18H0z"/><path d="M9 3c.02 0 .03 0 .04.02.14.47.4.94.75 1.4.22.27.61.7 1.17 1.25l.12.11c.37.38.73.8 1.08 1.26 1.08 1.45 1.12 2.85.11 4.18a8 8 0 0 1-1.03 1.04c-.63.56-1.08.99-1.34 1.28-.38.44-.66.9-.83 1.4-.02.04-.04.06-.07.06-.03 0-.05-.02-.06-.06-.18-.5-.46-.96-.84-1.4-.26-.3-.7-.72-1.34-1.28a8 8 0 0 1-1.03-1.04c-1.01-1.33-.97-2.73.11-4.18.34-.46.7-.88 1.08-1.25l.11-.12c.57-.56.96-.98 1.18-1.26.35-.45.6-.92.75-1.39L9 3Zm-.05 2.32v.02c-.06.36-.32.76-.78 1.2a9.02 9.02 0 0 0-1.45 1.72c-.18.3-.28.6-.3.9-.04.38 0 .71.08.98a4.9 4.9 0 0 0 .97 1.7 8.74 8.74 0 0 1 1.54 2.4h.02l.03-.01v-.02c.06-.26.12-.45.2-.59.28-.48.55-.87.8-1.18.51-.6.88-1.09 1.09-1.46.34-.59.49-1.14.46-1.65a2.23 2.23 0 0 0-.18-.84c-.12-.24-.3-.5-.52-.8-.15-.2-.4-.47-.76-.82a4.5 4.5 0 0 1-1.18-1.55h-.02Z" fill="#050B28"/><path d="m9 6.34.02.01.02.02c.16.3.38.7.67 1.17.08.14.09.28.02.44-.15.35-.35.7-.6 1.07a2.4 2.4 0 0 0-.11.28h-.04l-.02-.02-.1-.26a7.25 7.25 0 0 1-.6-1.07.46.46 0 0 1 .02-.44 24.05 24.05 0 0 0 .68-1.19H9Z" fill="#E08219"/><path d="M9.02 11.44h.03c.06-.38.15-.8.28-1.28a3.27 3.27 0 0 1 1.21-1.65l.07-.12.01-.01a.04.04 0 0 1 .04 0l.01.01c.27.44.34.9.23 1.36a.77.77 0 0 1-.21.36l-.22.2a5.03 5.03 0 0 0-1.2 1.56 6.75 6.75 0 0 0-.23.74h-.05l-.02-.02c-.1-.68-.4-1.27-.92-1.8a8.7 8.7 0 0 0-.26-.24c-.3-.28-.49-.5-.56-.63-.18-.34-.21-.71-.1-1.1a14.25 14.25 0 0 1 .16-.45h.02l.02.01A5.59 5.59 0 0 1 8.6 9.83c.07.14.13.38.2.72.05.31.12.61.23.89Z" fill="#E08219"/></svg>