<!-- by TradingView --><svg width="18" height="18" viewBox="0 0 18 18" xmlns="http://www.w3.org/2000/svg"><path fill="url(#a)" d="M0 0h18v18H0z"/><path d="M13 4H5c-.5 0-1 .42-1 1v8c0 .5.42 1 1 1h8c.5 0 1-.42 1-1V5c-.08-.58-.5-1-1-1ZM5 7.66V6h4.63l-.92 1.66H8v1.21l-2 3.11V7.66H5ZM9.63 12H6.44l.92-1.67h2.19c.92 0 1.6-.45 1.6-1.37 0-.93-.68-1.3-1.6-1.3h-.42L10.09 6c1.76.17 2.99 1.1 2.99 2.96 0 1.93-1.52 3.04-3.45 3.04Z" fill="#fff"/><defs><linearGradient id="a" x1="3.35" y1="3.12" x2="21.9" y2="24.43" gradientUnits="userSpaceOnUse"><stop stop-color="#1A1E21"/><stop offset="1" stop-color="#06060A"/></linearGradient></defs></svg>