<!-- by TradingView --><svg width="18" height="18" viewBox="0 0 18 18" xmlns="http://www.w3.org/2000/svg"><path fill="#FFE8B6" d="M0 0h18v18H0z"/><path d="M11.36 5.02c-1.92-.08-4.41.14-6.08.13-.04 0-.08 0-.1.02a.27.27 0 0 0-.1.07.34.34 0 0 0-.08.22v1.58c0 .42.61.22.73 1.46.02.32.02.64 0 .95-.11 1.25-.73 1.09-.73 1.5v1.75c0 .04 0 .08.02.11a.3.3 0 0 0 .06.1l.1.07.1.02h5.07c.27 0 .31-.37.31-.79 0-.33.08-.85-.28-.9-.45-.06-.78-.28-1.17-.68-.11-.12-.19-.15.02-.44.21-.28.21-.15.35-.05.4.36.9.41 1.27.43 1.74.02 3.12-.75 3.15-2.64.02-1.2-.72-2.9-2.64-2.91Zm-1.38 3.2c0 .05-.03.11-.07.15a.19.19 0 0 1-.15.05H9.5a.2.2 0 0 1-.15-.05.24.24 0 0 1-.07-.15V6.76c0-.06.03-.11.07-.15a.2.2 0 0 1 .15-.05h.26c.05 0 .1.01.15.05.04.04.07.1.07.15v1.46Z" fill="#175EA8"/></svg>