<!-- by TradingView --><svg width="18" height="18" viewBox="0 0 18 18" xmlns="http://www.w3.org/2000/svg"><path fill="#00F" d="M0 0h18v18H0z"/><path d="M10.67 12.9v.01c0 .04-.02.1-.05.18-.02.06 0 .1.06.13a1.81 1.81 0 0 0 .24.05v.02h-.22c-.14-.02-.35.03-.61.15a13.06 13.06 0 0 1-.16.06v-.01a.02.02 0 0 1 0-.02l.4-.2a.9.9 0 0 0 .29-.32l.02-.03.02-.02h.01Zm-.42-.2v.03l-.44.18c-.11.06-.2.18-.29.37l-.02.06h-.02l-.01-.01v-.1c.01-.16-.04-.27-.15-.32a13.9 13.9 0 0 1-.14-.07l-.15-.07v-.01l.01-.01h.01c.33.1.58.12.75.07a9.25 9.25 0 0 1 .45-.12Zm2.1-.16-.16.24a.03.03 0 0 0 0 .02v.01h.02a.2.2 0 0 1 .05 0v.03c-.21.08-.42.2-.61.36l-.02-.02h-.01v-.02c.26-.19.5-.4.7-.62h.02Zm.03-.37v.02l-.52.35c-.15.1-.3.3-.47.6l-.01.03h-.03v-.02c.06-.15.1-.26.1-.33.02-.07-.03-.13-.14-.16l-.03-.01a1.76 1.76 0 0 0-.23-.06v-.03h.02c.35.02.62-.02.82-.13a17.13 17.13 0 0 0 .49-.26Zm.98-.68v.02a6.31 6.31 0 0 0-.72.94v-.02l.17-.33.01-.02c0-.02-.02-.03-.05-.03h-.01V12a.52.52 0 0 0 .24-.16 37.63 37.63 0 0 0 .36-.36Zm-1.23-.74v.01c-.04.24-.06.46-.08.65-.01.18.12.34.4.49a3.15 3.15 0 0 1 .07.05v.01l-.03.01a2.1 2.1 0 0 1-.21-.04c-.24-.06-.43-.05-.57.03a8.21 8.21 0 0 0-.69.44v-.02l.36-.3c.28-.25.46-.5.54-.75a70.76 70.76 0 0 0 .2-.6l.01.02Zm-2.26.5.01.02v.01l-.02.43c0 .19.17.37.49.55l.1.07h.01v.04h-.01l-.12-.04a1.57 1.57 0 0 0-.73-.17 4.63 4.63 0 0 0-.72.18v-.02l.02-.01c.18-.08.35-.16.5-.25a.66.66 0 0 0 .28-.28c.03-.07.08-.2.12-.38l.04-.13.01-.01h.02Zm2.1-.58a.02.02 0 0 1 0 .03l-.59.46c-.2.15-.33.35-.4.58a6.36 6.36 0 0 0-.17.56h-.01v-.02l.03-.54c0-.2-.04-.33-.15-.42a3.47 3.47 0 0 0-.52-.3V11l.01-.02h.02c.23.08.42.14.56.17a.7.7 0 0 0 .53-.1 21.41 21.41 0 0 0 .7-.38Zm-4.08.15c.16.1.33.2.5.28a.69.69 0 0 0 .45.06 8.18 8.18 0 0 0 .57-.12v.03l-.5.22c-.18.09-.32.32-.39.7v.05l-.04.04c-.02 0-.03-.02-.02-.05v-.05c.03-.38-.03-.64-.18-.78a11.6 11.6 0 0 0-.42-.37l.01-.01h.02Zm-.55.37.01.01v.02l.01.3c.01.1.11.24.3.4a3.84 3.84 0 0 1 .12.1v.01h-.03l-.42-.25a1.12 1.12 0 0 0-.51 0h-.05v-.04l.04-.02c.21-.04.34-.1.38-.15a.68.68 0 0 0 .1-.28 1.36 1.36 0 0 1 .03-.1h.02Zm6.15-1.07v.01h.01v.02a7.26 7.26 0 0 0-.56.76l-.06.13a7.27 7.27 0 0 0-.2.78h-.02v-.01l.06-.61c.01-.18-.05-.32-.18-.4-.18-.12-.26-.2-.25-.21.01-.02.11 0 .31.07.16.05.3.01.43-.1a7.5 7.5 0 0 0 .46-.44Zm.04.23v.01l-.17.64v.04l.04.03c.08.05.11.08.1.1 0 .02-.05.02-.14-.01h-.05a.07.07 0 0 0-.03.02l-.38.54v.01h-.02v-.03l.05-.09c.16-.24.26-.42.32-.55.06-.13.13-.33.21-.6l.03-.1.01-.02h.02v.01Zm-7.65-.16.1.11c.18.2.32.3.43.3a2.3 2.3 0 0 0 .33 0v.03l-.09.03a.72.72 0 0 0-.3.11c-.04.05-.09.18-.13.4v.04l-.02.01h-.03v-.05c.02-.26.01-.44-.03-.53a2.86 2.86 0 0 0-.28-.43l.01-.02h.01Zm8.1-.39v.02a6.14 6.14 0 0 0-.33 1.1h-.02v-.02l.08-.47a.5.5 0 0 0-.02-.27v-.02h.01a.02.02 0 0 1 .03 0c.02.02.04.02.05.01l.02-.01.14-.33.01-.01h.02Zm-2.91-.98.01.01v.01c.03.32.06.58.1.78.02.2.12.34.27.45a7.33 7.33 0 0 0 .54.38h-.03a7.28 7.28 0 0 0-.6-.2.7.7 0 0 0-.53.07 8.6 8.6 0 0 0-.69.41h-.01v-.02h-.01v-.01l.53-.48c.1-.1.18-.2.24-.3.05-.12.08-.24.1-.39a11.94 11.94 0 0 0 .06-.7v-.01h.02Zm-2.2.4a4.67 4.67 0 0 0 0 .57c0 .18.09.34.24.47a14.32 14.32 0 0 0 .57.43v.02h-.01l-.01.01h-.01a7.17 7.17 0 0 0-.72-.35.88.88 0 0 0-.22-.06.88.88 0 0 0-.22 0c-.26.03-.52.08-.78.14H7.7l-.01-.01v-.03l.66-.26a.6.6 0 0 0 .36-.39c.05-.16.1-.33.13-.51 0-.03.01-.04.03-.04Zm2-.5h.01v.01h.01v.02c-.22.2-.41.4-.6.61a.92.92 0 0 0-.13.2.93.93 0 0 0-.08.23 7.64 7.64 0 0 0-.13.86h-.02v-.01h-.01c0-.22-.02-.47-.05-.76a.65.65 0 0 0-.28-.5c-.15-.1-.3-.2-.49-.3-.02 0-.03-.02-.02-.04h.05l.54.2c.2.05.38.02.56-.1a15.42 15.42 0 0 0 .64-.43Zm2.08-.23c.02.34.04.6.07.8.02.16.13.32.32.47l.17.13v.04h-.02l-.07-.03c-.28-.12-.5-.12-.62 0a7.66 7.66 0 0 0-.5.47v-.02l.35-.5c.15-.23.23-.52.25-.88l.02-.47v-.01h.03Zm-.15-.1v.02l-.14.18c-.28.34-.43.62-.46.84a7.26 7.26 0 0 0-.05.87h-.01l-.01-.01A19.44 19.44 0 0 0 12 9.4c-.07-.19-.26-.38-.59-.59l-.16-.1-.01-.02v-.02l.01-.01h.02l.52.2c.2.06.37.03.54-.1a16.82 16.82 0 0 0 .47-.38ZM7.18 8.3v.01l.45.53c.13.14.28.2.46.19A34.42 34.42 0 0 0 8.67 9v.03l-.5.14a.6.6 0 0 0-.4.32 6.4 6.4 0 0 0-.3.76h-.01v-.02l.1-.63c.04-.25 0-.48-.1-.69a26.57 26.57 0 0 0-.31-.6h.02ZM4.5 9.36l.12.2c.04.06.08.1.12.1.1 0 .16 0 .16.02s-.04.05-.14.08c-.04.01-.07.06-.08.13a18.97 18.97 0 0 1-.05.24H4.6V10.06c.02-.15.01-.26 0-.33a1.5 1.5 0 0 0-.1-.3l-.03-.06v-.01h.02Zm2.34-.95h.02v.02l-.02.1c-.09.36-.12.63-.1.8 0 .14.12.37.33.7l.03.05v.03h-.01l-.01.01h-.01l-.38-.43a.53.53 0 0 0-.3-.17 2.68 2.68 0 0 0-.6.02l-.01-.02V9.5h.01l.06-.02c.2-.06.35-.12.43-.16a.7.7 0 0 0 .3-.3 7.1 7.1 0 0 0 .25-.62h.01Zm6.94-.2v.05c-.15.34-.22.62-.2.82 0 .16.01.39.04.68v.01l-.01.01h-.02v-.01l-.1-.59a1.64 1.64 0 0 0-.45-.81v-.02h.03l.2.15.03.02c.1.08.19.08.25.01a2.12 2.12 0 0 0 .22-.32h.01Zm.1.21v.64a1.3 1.3 0 0 0 .12.4h-.02l-.08-.09h-.03v.01l-.08.28h-.03v-.02c.06-.38.09-.79.08-1.2l.02-.02h.01Zm-8.43-.9.27.4c.1.14.24.2.4.2.16 0 .31-.02.47-.04h.01l.01.01v.02l-.02.01-.15.05c-.3.09-.5.2-.6.34a17.1 17.1 0 0 0-.31.68H5.5l-.01-.01v-.01c.1-.33.15-.56.17-.7.03-.18-.03-.43-.17-.76a6.9 6.9 0 0 1-.07-.2h.02Zm-.33.19v.01c0 .1-.04.27-.1.5a1.54 1.54 0 0 0 .13.83l-.02.01-.1-.16-.08-.15c-.06-.12-.18-.17-.37-.15h-.12a.02.02 0 0 1 0-.02l.07-.03c.2-.1.33-.22.39-.34a4.24 4.24 0 0 0 .19-.5h.01Zm4.2-.68v.01l.4.74a.9.9 0 0 0 .15.19l.2.14a7.66 7.66 0 0 0 .77.39l-.01.02h-.02l-.72-.18a.65.65 0 0 0-.56.1c-.15.11-.3.24-.44.37-.02.02-.03.02-.05.01l.01-.05.35-.44a.64.64 0 0 0 .1-.56 14.9 14.9 0 0 0-.22-.73h.01a.02.02 0 0 1 .03 0ZM9.08 7v.03l-.43.67c-.1.18-.1.36-.03.56a12.13 12.13 0 0 0 .2.52h-.04a9.3 9.3 0 0 0-.32-.48.53.53 0 0 0-.42-.23 10.03 10.03 0 0 0-.79-.03v-.02h.02L7.4 8c.28-.04.49-.08.61-.12.22-.07.39-.17.52-.31A34.6 34.6 0 0 0 9.05 7h.03Zm2.42-.4h.01c.14.4.25.66.33.8.1.2.34.4.71.63a8.45 8.45 0 0 1 .2.14v.01h-.02l-.55-.2a.53.53 0 0 0-.53.09 5.88 5.88 0 0 0-.45.37.03.03 0 0 1-.01-.04c.03-.04.06-.1.12-.16.23-.3.34-.55.34-.75a24.14 24.14 0 0 0-.18-.88h.01l.01-.01h.01Zm-.21-.08v.04c-.16.19-.29.35-.38.49a.68.68 0 0 0-.1.53 8.36 8.36 0 0 0 .16.78h-.02c-.06-.13-.15-.35-.3-.64a1.1 1.1 0 0 0-.22-.32 1.1 1.1 0 0 0-.33-.21 11.84 11.84 0 0 0-.66-.28v-.02a.02.02 0 0 1 .02-.01c.32.07.58.13.78.16a.7.7 0 0 0 .52-.13 7.39 7.39 0 0 0 .53-.4ZM4.3 7.3v.01c-.08.33-.14.65-.16.98h-.02L4.1 8l-.01-.02a.03.03 0 0 0-.03 0 .28.28 0 0 1-.04.04H4V8a.02.02 0 0 1 0-.02 2 2 0 0 0 .27-.68h.03Zm.22-.22.08.27c.02.07.08.1.15.06a3.91 3.91 0 0 1 .22-.06c0 .02-.01.03-.02.03l-.04.03c-.18.12-.3.24-.35.35a14.59 14.59 0 0 0-.25.47H4.3v-.01l.06-.18a1.65 1.65 0 0 0 .14-.96h.02Zm8.51-.49.01.01c.08.3.15.51.2.66.06.2.21.43.47.7l.02.02v.03h-.02a2.12 2.12 0 0 0-.31-.23c-.08-.04-.15 0-.22.1l-.03.03a1.87 1.87 0 0 0-.14.21H13a.02.02 0 0 1-.01-.03c.14-.35.2-.65.14-.9a18.7 18.7 0 0 0-.1-.6h.01Zm-1.4-.11.6.28c.16.06.35 0 .57-.22l.06-.05h.02l.01.03a2 2 0 0 1-.1.18c-.14.21-.18.4-.15.55a8.16 8.16 0 0 0 .2.78l-.02-.01-.18-.43a1.71 1.71 0 0 0-.54-.74 81.03 81.03 0 0 0-.5-.37h.03Zm-4.3-.5c.14.2.25.37.36.5.11.15.27.23.46.26a8.53 8.53 0 0 0 .8.06.02.02 0 0 1 0 .02v.02l-.7.08a1.1 1.1 0 0 0-.38.11c-.1.06-.2.14-.3.25a12.28 12.28 0 0 0-.47.54l-.01-.01-.01-.01v-.02c.17-.27.3-.5.39-.68.09-.17.1-.35.04-.53a7.11 7.11 0 0 0-.22-.6c.02-.02.03-.01.04 0ZM7.1 6l.01.01v.02l-.37.66a.68.68 0 0 0-.08.52 6.02 6.02 0 0 0 .18.58H6.8l-.02-.01-.06-.1c-.11-.2-.2-.33-.25-.39-.09-.1-.23-.15-.41-.13l-.54.05H5.5v-.03l.01-.01.54-.16c.23-.07.41-.21.56-.41l.44-.6h.03Zm6.18.65.16.2v.01h.02a.03.03 0 0 0 .01 0l.04-.07h.02v.28c.05.2.11.4.19.6v.01l-.03.02a.02.02 0 0 1-.01 0V7.7a4.94 4.94 0 0 0-.41-1.05h.01ZM5.8 5.52h.01l.04.07c.16.27.32.39.5.37a7.61 7.61 0 0 0 .67-.1v.02l-.58.2c-.25.1-.5.29-.72.57A1848.87 1848.87 0 0 0 5.4 7v-.02c.18-.28.32-.5.41-.67.08-.14.08-.33.01-.57a2.09 2.09 0 0 1-.05-.2l.01-.03h.02Zm-.16.07.01.01v.02l-.33.6a.93.93 0 0 0-.13.51 3.46 3.46 0 0 1 0 .29h-.02V7l-.1-.35a.08.08 0 0 0-.12-.05l-.37.16h-.01v-.02c.33-.2.56-.4.68-.59a19.79 19.79 0 0 0 .39-.57Zm3.94-.47.13.2c.24.36.46.6.66.69a7.42 7.42 0 0 0 .82.3.02.02 0 0 1 0 .02l-.01.01a22.4 22.4 0 0 0-.89-.14c-.2 0-.45.12-.74.37a10.8 10.8 0 0 1-.2.12v-.04c.13-.14.25-.28.36-.43a.52.52 0 0 0 .06-.54 17.56 17.56 0 0 0-.21-.56h.02Zm-.23-.02v.03l-.36.45a.52.52 0 0 0-.09.53 5.85 5.85 0 0 0 .22.53v.01h-.05a9.71 9.71 0 0 1-.1-.16c-.22-.32-.43-.5-.62-.56a21.82 21.82 0 0 0-.89-.1V5.8l.01-.01c.42-.01.7-.03.86-.06.22-.04.5-.2.82-.48a8.68 8.68 0 0 1 .2-.15Zm3.35.47a6.21 6.21 0 0 0 .68.94h-.02l-.26-.26h-.02c-.02-.01-.03 0-.04.03h-.01L13 6.3H13v-.02a.5.5 0 0 0-.08-.26 30.31 30.31 0 0 0-.24-.44h.02Zm-7.24.08v.02l-.1.1a3.73 3.73 0 0 0-.64.74H4.7l-.01-.01v-.02c.13-.18.24-.34.32-.49.02-.04.05-.1.07-.19l.04-.1a.02.02 0 0 1 .02-.02l.01.01v.01c0 .05.02.08.03.1a.03.03 0 0 0 .03.02l.24-.18Zm6-.64a7.31 7.31 0 0 0 .55.76l.12.1a7.33 7.33 0 0 0 .68.43v.01l-.01.01h-.01a7.6 7.6 0 0 0-.57-.25c-.16-.07-.3-.05-.44.05-.16.13-.25.19-.27.17-.01-.01.04-.1.17-.27.09-.13.1-.28.02-.44a7.19 7.19 0 0 0-.27-.56h.01V5a.02.02 0 0 1 .02 0Zm-.21-.08.01.02v.01l-.05.06c-.2.23-.28.42-.2.58a7.56 7.56 0 0 0 .3.61h-.02l-.37-.48a1.72 1.72 0 0 0-.77-.51 99.4 99.4 0 0 0-.45-.19h.01l.02-.01c.32.1.58.15.77.19.16.03.34-.03.54-.16l.19-.12h.02Zm.47.11.45.32c.02.02.05.03.07.03l.07-.01c.08-.04.13-.05.14-.04 0 0 0 .05-.04.13a.14.14 0 0 0 0 .14l.33.46v.01h-.01a5.73 5.73 0 0 0-1.02-1.05v.01Zm-4.14-.55.02.01v.01c-.11.1-.25.26-.42.46-.12.13-.15.28-.1.43.08.2.1.3.1.3-.03.02-.1-.06-.22-.23-.1-.13-.24-.19-.42-.17a7.64 7.64 0 0 0-.62.09v-.03h.01a7.4 7.4 0 0 0 .9-.29L6.96 5a7.39 7.39 0 0 0 .62-.51Zm.23-.03.15.16c.15.18.31.29.47.3a8.28 8.28 0 0 0 .82.05v.01h-.02l-.46.05c-.37.03-.66.12-.88.28l-.48.36h-.03v-.02l.45-.48c.12-.14.11-.34-.02-.62l-.04-.07v-.02h.04Zm-1.63.31v.03l-.03.02a1.48 1.48 0 0 0-.39.51h-.02c-.02 0-.03-.02-.03-.03v-.02H5.7l-.02-.01h-.01a4.43 4.43 0 0 0-.3.16h-.01V5.4a6.66 6.66 0 0 0 .81-.65l.01.01Zm1.21-.35.02.02v.01l-.02.01-.11.05-.6.26c-.12.07-.3.18-.54.35l-.1.07a.02.02 0 0 1-.02 0H6v-.03l.53-.4a.09.09 0 0 0 .03-.1c-.03-.07-.03-.1-.01-.12.02-.01.05.01.1.07a.09.09 0 0 0 .1.03l.62-.22h.01Zm3.88.09a5.9 5.9 0 0 0 .9.6v.01h-.02l-.4-.21a.48.48 0 0 0-.25-.06h-.02v-.03c.03-.02.04-.03.04-.05l-.01-.02-.26-.22V4.5h.02Zm-1.55-.35.02.02c.28.24.53.39.73.45a21.04 21.04 0 0 0 .68.18v.02h-.02l-.6-.1a1.67 1.67 0 0 0-.91.18H9.6v-.04a1.95 1.95 0 0 0 .25-.17c.1-.07.13-.15.08-.22a2.1 2.1 0 0 0-.24-.31v-.01h.02Zm-.21-.03v.02c-.16.1-.26.18-.32.23-.07.06-.06.14.02.24 0 .02.02.03.02.03a1.91 1.91 0 0 0 .17.21v.01l-.01.01h-.03c-.3-.25-.57-.39-.82-.42a19.59 19.59 0 0 0-.62-.08v-.01a.02.02 0 0 1 .01-.01l.7.02c.21 0 .48-.08.82-.24l.04-.01h.02Zm1.04.2a1.24 1.24 0 0 0 .39.02v.02l-.1.05h-.01v.03l.23.15v.02h-.02a6.38 6.38 0 0 0-1.07-.42v-.02a.02.02 0 0 1 0-.02h.01l.57.18Zm-2.6-.27v.02a4.24 4.24 0 0 0-.31.17v.02c.02 0 .03.02.03.04v.01h-.02a1.48 1.48 0 0 0-.63.04H6.96v-.02h.01a6.57 6.57 0 0 0 .98-.28Zm.44-.03c.07.03.13.04.17.04a5.38 5.38 0 0 0 .66 0v.03a.01.01 0 0 1 0 .01 5.2 5.2 0 0 0-1.17.11V4.2l.26-.1h.01v-.04l-.05-.05V4l.12.03Z" fill="#FBF5EF"/></svg>