<!-- by TradingView --><svg width="18" height="18" viewBox="0 0 18 18" xmlns="http://www.w3.org/2000/svg"><path fill="#33756D" d="M0 0h18v18H0z"/><path d="M8.04 13A4.07 4.07 0 0 1 4 9.03c0-1.59.91-3.07 2.4-3.68 1.93-.77 3.53-.27 4.8 1.5v.03l-.01.03L9.8 8.33a.09.09 0 0 1-.08.02.09.09 0 0 1-.07-.05 1.83 1.83 0 0 0-2.89-.67c-1.44 1.26-.2 3.6 1.6 3.2.3-.07.75-.35 1.31-.83a78.32 78.32 0 0 0 4.2-3.75.1.1 0 0 1 .1.05.1.1 0 0 1 .02.05v2.6a.38.38 0 0 1-.13.27 120.99 120.99 0 0 1-3.6 3.04c-.63.5-1.44.74-2.23.74Z" fill="#fff"/></svg>