<!-- by TradingView --><svg width="18" height="18" viewBox="0 0 18 18" xmlns="http://www.w3.org/2000/svg"><path fill="#000E35" d="M0 0h18v18H0z"/><path d="M11.86 3.14a.4.4 0 0 1 .13.28V5a.52.52 0 0 1-.51.5h-.05a.5.5 0 0 1-.5-.5l-.01-.85s0-.02-.02-.03a1.25 1.25 0 0 0-.02-.02.06.06 0 0 0-.03-.02L10 4.07a.5.5 0 0 1-.5-.5V3.5a.52.52 0 0 1 .5-.5c.55-.02 1.08-.01 1.58 0 .11.01.2.05.28.13Z" fill="#4CA8FB"/><path d="M9.09 5c.68.02 1.28.24 1.8.65.64.5 1 1.15 1.09 1.94.09.8-.12 1.5-.63 2.14a.13.13 0 0 0-.03.09c0 .03.01.06.03.08.5.58.71 1.2.63 1.84a2.37 2.37 0 0 1-1.03 1.64c-.9.66-1.93.8-3.08.4-1.2-.4-1.82-1.16-1.87-2.28v-.03l.03-.03a.08.08 0 0 1 .05-.02h1.14c.03 0 .05 0 .07.02l.02.06c.04.47.3.81.78 1.04.44.2.9.25 1.39.14.52-.11.88-.37 1.1-.79.23-.44.13-.86-.29-1.23a.14.14 0 0 0-.14-.03 3.1 3.1 0 0 1-2.78-.26A2.76 2.76 0 0 1 6 7.99a2.71 2.71 0 0 1 1.25-2.44A3.01 3.01 0 0 1 9.09 5ZM9 6.17c-.99 0-1.79.79-1.79 1.75S8.01 9.66 9 9.66s1.79-.78 1.79-1.74S9.99 6.17 9 6.17Z" fill="#fff"/></svg>