<!-- by TradingView --><svg width="18" height="18" viewBox="0 0 18 18" xmlns="http://www.w3.org/2000/svg"><path fill="#F0F3FA" d="M0 0h18v18H0z"/><path d="M8.82 9.2a35.04 35.04 0 0 1-.97-1l2.71-2.72a.02.02 0 0 1 .03 0l2.72 2.72a.02.02 0 0 1 0 .03l-3.12 3.13v.02a.03.03 0 0 0 0 .02l.38.38h.02l3.35-3.35a.02.02 0 0 1 .02 0l.01.01a5.01 5.01 0 0 1-9.84 1.64.02.02 0 0 1 .02 0l3.25 3.26a.03.03 0 0 0 .04 0l3.54-3.54a.02.02 0 0 0 0-.03L9.03 7.82a.03.03 0 0 0-.04 0l-.37.37a.03.03 0 0 0 0 .04l.56.57a40.01 40.01 0 0 1 .97 1l-2.71 2.72a.02.02 0 0 1-.02 0h-.01L4.68 9.8a.02.02 0 0 1 0-.03L7.8 6.64a.03.03 0 0 0 0-.04l-.38-.38H7.4L4.06 9.57a.02.02 0 0 1-.03-.01 5.01 5.01 0 0 1 9.84-1.64.02.02 0 0 1-.02 0L10.6 4.66a.03.03 0 0 0-.04 0L7.02 8.2a.02.02 0 0 0 0 .03l1.95 1.95a.03.03 0 0 0 .04 0l.37-.37a.03.03 0 0 0 0-.04 21 21 0 0 0-.56-.57Z" fill="#008F84"/></svg>