<!-- by TradingView --><svg width="18" height="18" viewBox="0 0 18 18" xmlns="http://www.w3.org/2000/svg"><path fill="#F0F3FA" d="M0 0h18v18H0z"/><path d="M14.77 11c-.23 0-.44-.05-.62-.14a1.09 1.09 0 0 1-.6-.97h.61a.52.52 0 0 0 .3.45c.1.05.2.07.3.07.13 0 .23-.03.33-.07a.55.55 0 0 0 .29-.51.54.54 0 0 0-.3-.52.79.79 0 0 0-.37-.08h-.46v-.54h.46c.11 0 .22-.03.3-.07a.52.52 0 0 0 .2-.2.57.57 0 0 0 .08-.3c0-.11-.02-.2-.06-.29a.46.46 0 0 0-.18-.19.52.52 0 0 0-.27-.07c-.1 0-.2.02-.29.07a.52.52 0 0 0-.3.47h-.57a1.09 1.09 0 0 1 .58-.96c.17-.1.36-.15.58-.15.22 0 .42.05.58.15.16.1.3.22.38.39.1.16.14.34.14.54 0 .22-.06.4-.17.55a.76.76 0 0 1-.44.29v.03a.8.8 0 0 1 .54.3c.13.17.2.37.19.62a1.1 1.1 0 0 1-.6.98c-.18.1-.4.15-.63.15ZM11 11V7h2v.5h-1.5v1H13V9h-1.5v2H11ZM10.5 8.33h-.62c-.07-.47-.43-.66-.82-.66-.64 0-1 .64-1 1.33 0 .7.35 1.33 1 1.33.38 0 .74-.2.82-.66h.62c-.1.84-.76 1.33-1.44 1.33-.96 0-1.56-.9-1.56-2 0-1.09.6-2 1.56-2 .7 0 1.34.47 1.44 1.33ZM6.03 7v4H5.5V7h.53ZM5.03 7v4H4.5V7h.53ZM2 11V7h2v.5H2.5v1H4V9H2.5v2H2Z"/></svg>