<!-- by TradingView --><svg width="18" height="18" viewBox="0 0 18 18" fill="none" xmlns="http://www.w3.org/2000/svg">
<rect width="18" height="18" fill="#22A3DC"/>
<path fill-rule="evenodd" clip-rule="evenodd" d="M4 4.99998H5.34352V7.77496C5.54795 7.51511 6.09428 6.99054 6.79389 6.99998C7.6684 7.0118 8.6792 8.01185 8.70192 10.0198C8.72463 12.0277 7.79333 12.9253 6.72575 12.9962C6.41153 13.0238 5.66498 12.9135 5.19252 12.2521L5.07894 13H4V4.99998ZM5.34352 8.85167C5.51052 8.60364 5.9447 8.11229 6.34549 8.13119C6.84648 8.15481 7.35859 8.60217 7.35859 10.0682C7.35859 11.5092 6.93554 11.9226 6.34549 11.9226C5.87345 11.9226 5.48083 11.4895 5.34352 11.273V8.85167Z" fill="white"/>
<path fill-rule="evenodd" clip-rule="evenodd" d="M9.28038 8.51451C9.31631 8.0021 9.82362 6.98187 11.5654 7.00023C13.3073 7.01859 13.64 8.26978 13.6005 8.89308V12.0134C13.6077 12.2161 13.663 12.8073 13.7319 13H12.4385C12.3954 12.8929 12.3027 12.4883 12.2768 12.2773C12.0505 12.5182 11.4059 13 10.6385 13C9.67919 13 9.01091 12.392 9.00013 11.4283C8.98936 10.4647 9.62377 9.48961 12.2861 9.23723V8.69806C12.2825 8.45715 12.1259 7.97763 11.5654 7.98681C10.8648 7.99828 10.6061 8.36538 10.5415 8.75542L9.28038 8.51451ZM12.2861 10.3056V11.3644C12.0649 11.5797 11.4878 12.0124 10.9489 12.0208C10.41 12.0293 10.3021 11.5868 10.3155 11.3644C10.3289 11.0891 10.7418 10.492 12.2861 10.3056Z" fill="white"/>
<path fill-rule="evenodd" clip-rule="evenodd" d="M6.00362 6.99998C6.83662 5.78789 8.18694 4.99998 9.71107 4.99998C12.2417 4.99998 14.2931 7.17205 14.2931 9.85144C14.2931 11.0531 13.8805 12.1526 13.1971 13H13.6222C14.4763 12.0442 15 10.7541 15 9.33446C15 6.38831 12.7443 3.99998 9.9618 3.99998C7.96998 3.99998 6.24811 5.22379 5.43036 6.99998H6.00362Z" fill="#F2B536"/>
</svg>
