<!-- by TradingView --><svg width="18" height="18" viewBox="0 0 18 18" xmlns="http://www.w3.org/2000/svg"><path fill="#F0F3FA" d="M0 0h18v18H0z"/><path d="M5.3 12.03a4.87 4.87 0 0 0 2.2 1.67l.39-1.18a3.65 3.65 0 0 1-1.6-1.21l-1 .72Z" fill="#DCCF0F"/><path d="M5.52 9.16c.03.7.24 1.34.59 1.9l-1.3.71A5.08 5.08 0 0 1 4 9.16h1.52ZM5.52 8.84H4c.02-.82.24-1.6.6-2.27l1.36.62c-.26.5-.42 1.06-.44 1.65Z" fill="#002D5E"/><path d="M7.67 5.57c-.63.3-1.17.77-1.55 1.36L5.07 6.3A4.91 4.91 0 0 1 7.22 4.4l.45 1.16ZM10.27 5.43a3.53 3.53 0 0 0-2.31.03L7.5 4.3a4.7 4.7 0 0 1 3.15-.05l-.4 1.18ZM12.06 6.75c-.39-.53-.9-.95-1.5-1.21l.39-1.19c.84.35 1.57.94 2.1 1.68l-.99.72ZM10.65 12.42a3.7 3.7 0 0 0 1.61-1.48l1.05.63a4.92 4.92 0 0 1-2.2 2l-.46-1.15ZM8.18 12.61a3.54 3.54 0 0 0 2.2-.08l.44 1.16a4.7 4.7 0 0 1-3.04.1l.4-1.18Z" fill="#DCCF0F"/><path d="M6.28 11.3c.41.55.97.97 1.6 1.22l.4-1.18c-.4-.16-.74-.42-1-.75l-1 .72Z" fill="#002D5E"/><path d="M6.73 9.16c.02.43.16.83.37 1.18l-1 .71a3.81 3.81 0 0 1-.58-1.9h1.2ZM7.01 7.82c-.16.3-.26.65-.28 1.02H5.52c.02-.6.18-1.15.44-1.65l1.05.63Z" fill="#DCCF0F"/><path d="M8.12 6.73c-.38.19-.7.47-.95.82l-1.05-.62c.38-.6.92-1.07 1.55-1.36l.45 1.16ZM9.87 6.61a2.36 2.36 0 0 0-1.47.01l-.45-1.16a3.53 3.53 0 0 1 2.31-.03l-.4 1.18ZM11.06 7.47a2.45 2.45 0 0 0-.91-.75l.4-1.18c.6.26 1.12.68 1.5 1.2l-.99.73ZM10.2 11.25c.42-.2.77-.53 1-.93l1.06.62a3.7 3.7 0 0 1-1.6 1.48l-.46-1.17ZM8.57 11.43a2.36 2.36 0 0 0 1.35-.06l.45 1.16a3.53 3.53 0 0 1-2.2.08l.4-1.18Z" fill="#002D5E"/><path fill-rule="evenodd" d="M13 9.33a.33.33 0 1 0 0-.66.33.33 0 0 0 0 .66Zm0 .67a1 1 0 1 0 0-2 1 1 0 0 0 0 2Z" fill="#DCCF0F"/></svg>