<!-- by TradingView --><svg width="18" height="18" viewBox="0 0 18 18" xmlns="http://www.w3.org/2000/svg"><path fill="#183881" d="M0 0h18v18H0z"/><path d="M12.2 12.2c-.87.85-1.98 1.32-3.17 1.32H9a4.58 4.58 0 0 1-1.35-8.94c.1.2.17.45.2.65a3.83 3.83 0 0 0-2.57 2.79v.03c-.17.68-.13 1.36.07 1.97a3.94 3.94 0 0 0 2.67 2.62l.14.03h.06s.1.04.27.04c.14.03.3.03.44.03.2 0 .4 0 .64-.03.78-.1 1.56-.44 2.17-1.02.54-.55.84-1.16.9-1.4.11-.3.08-.64-.06-.95-.13-.3-.4-.54-.74-.64-.34-.1-.68-.1-.98.07-.64.3-.91 1.08-.58 1.73.07.1.2.17.3.1.1-.07.18-.2.1-.3a.8.8 0 0 1 .99-1.13c.2.07.37.2.47.41.1.2.1.4.04.61a.55.55 0 0 1-.14.24c-1.05.99-2.7.92-3.72-.14-.1-.1-.23-.1-.33 0s-.1.24 0 .34a3.1 3.1 0 0 0 3.37.79c-.47.44-1.04.71-1.65.81-.54.07-.98-.2-1.12-.27a2.69 2.69 0 0 1-1.08-2.89A2.64 2.64 0 0 1 10.7 7.1c.1.03.2.03.27.07.3.1.64 0 .81-.3.1-.21.13-.42.03-.59 0-.03-.33-.91-1.31-1.66a4.58 4.58 0 0 1 3.1 4.35 4.7 4.7 0 0 1-1.38 3.23ZM9.96 4a.37.37 0 0 0-.41.24c-.07.17 0 .34.17.45a3.68 3.68 0 0 1 1.59 1.66c.03.04.03.07.03.07.03.14 0 .2 0 .24-.03.03-.1.13-.24.1l-.33-.1A3.17 3.17 0 0 0 7 9a3.1 3.1 0 0 0 1.18 3.23 2.93 2.93 0 0 1-.85-.34h-.03a3.47 3.47 0 0 1-.68-5.4c.38-.34.82-.61 1.29-.78.03.2.03.44.03.64 0 .14.1.24.24.24.13 0 .24-.1.24-.24a5.81 5.81 0 0 0-.44-2.07.4.4 0 0 0-.17-.17.21.21 0 0 0-.2 0A5.1 5.1 0 0 0 4 8.97 5.02 5.02 0 0 0 8.97 14H9c1.32 0 2.57-.51 3.51-1.46A4.95 4.95 0 0 0 14 8.97 4.93 4.93 0 0 0 9.95 4Z" fill="#fff"/></svg>