<!-- by TradingView --><svg width="18" height="18" viewBox="0 0 18 18" xmlns="http://www.w3.org/2000/svg"><path fill="#F0F3FA" d="M0 0h18v18H0z"/><path d="M12.9 7.24c.07-.01.13 0 .17.02l.03.04a.08.08 0 0 1-.02.08 1320.09 1320.09 0 0 1-3.74 1.74.1.1 0 0 0-.05.06v.07l.02.02c0 .01.02.03.04.03a346.52 346.52 0 0 1 1.97-.54.1.1 0 0 1 .05.02.1.1 0 0 1 .02.03l.01.04v.04l-2.97 5.06c-.02.04-.06.06-.12.04a.14.14 0 0 1-.08-.07 11885.18 11885.18 0 0 1-2.98-5.1.07.07 0 0 1 .02-.05l.02-.02a102.5 102.5 0 0 0 7.61-1.5Zm.52-3.23.04.02.03.04a.1.1 0 0 1 0 .1l-.81 1.45a.3.3 0 0 1-.12.11c-.25.13-.58.28-1 .43a40.11 40.11 0 0 1-6.58 1.86.1.1 0 0 1-.05-.04L4.01 6.3A.08.08 0 0 1 4 6.26l.01-.04a.1.1 0 0 1 .04-.03 30.58 30.58 0 0 0 9.22-2.17c.06-.02.1-.03.15-.01Z" fill="url(#a)"/><defs><linearGradient id="a" x1="6.77" y1="8.09" x2="14.2" y2="3.24" gradientUnits="userSpaceOnUse"><stop stop-color="#1E4979"/><stop offset="1" stop-color="#0A7F84"/></linearGradient></defs></svg>