<!-- by TradingView --><svg width="18" height="18" viewBox="0 0 18 18" xmlns="http://www.w3.org/2000/svg"><path fill="#F0F3FA" d="M0 0h18v18H0z"/><path d="M13.56 5.74 9.43 3.26 8.99 3l-.43.26-4.13 2.48L4 6v6l.44.26.9.55 1.16.7 2.06 1.23L9 15l.44-.26 2.13-1.28 1.24-.74.75-.46.44-.25V6l-.44-.27ZM9 4.04l4.29 2.49v3.9L9.44 8.21 9 7.96l-.44.25-3.85 2.22V6.52L9 4.05Zm-.36 9.65-1.7-.98 1.7-.98v1.96Zm.72 0v-1.95l1.7.98-1.7.97Zm-.72-4.43v1.43L6.5 11.93l-.44.27-1.19-.72 3.77-2.22Zm3.29 2.93-.44-.27-2.13-1.24V9.25l3.76 2.22-1.19.72Z" fill="#B87700"/></svg>