<!-- by TradingView --><svg width="18" height="18" viewBox="0 0 18 18" xmlns="http://www.w3.org/2000/svg"><path fill="#5E22F3" d="M0 0h18v18H0z"/><path d="M7.44 9c-.41 0-.82.1-1.21.44-.82.72-.35 1.51-1.04 2.11-.3.26-.72.45-1.19.45V9c.4 0 .82-.1 1.21-.44.82-.72.35-1.51 1.04-2.11.3-.26.72-.45 1.19-.45v3Zm3.12 0c-.37 0-.74.1-1.1.44-.74.72-.32 1.51-.94 2.11-.27.26-.65.45-1.08.45V9c.36 0 .74-.1 1.1-.44.74-.72.32-1.51.94-2.11.27-.26.66-.45 1.08-.45v3ZM14 9c-.4 0-.82.1-1.21.44-.82.72-.35 1.51-1.04 2.11-.29.26-.71.45-1.19.45V9c.4 0 .82-.1 1.21-.44.82-.72.35-1.51 1.04-2.11.3-.26.72-.45 1.19-.45v3Z" fill="#fff"/></svg>