<!-- by TradingView --><svg width="18" height="18" viewBox="0 0 18 18" xmlns="http://www.w3.org/2000/svg"><path fill="#F0F3FA" d="M0 0h18v18H0z"/><path fill-rule="evenodd" d="M8.02 5h1.96c.97 0 1.84.46 2.39 1.16l-1.5 3.77a.97.97 0 0 1-.93.63.97.97 0 0 1-.9-.61l-.49-1.17c-.3-.74-.98-1.03-1.66-1.03-.63 0-1.26.33-1.6 1L5 9.3V7.99A3 3 0 0 1 8.02 5Zm-2.9 5.87A3.02 3.02 0 0 0 8.03 13h1.96A3 3 0 0 0 13 10V8c0-.3-.04-.58-.12-.85l-1.24 3.18c-.3.79-1 1.18-1.7 1.17-.67 0-1.34-.38-1.65-1.13l-.5-1.07a.97.97 0 0 0-1.76-.07l-.9 1.64ZM4 7.82A3.84 3.84 0 0 1 7.86 4h2.28A3.84 3.84 0 0 1 14 7.82v2.36A3.84 3.84 0 0 1 10.14 14H7.86A3.84 3.84 0 0 1 4 10.18V7.82Z" fill="#03776A"/></svg>