<!-- by TradingView --><svg width="18" height="18" viewBox="0 0 18 18" xmlns="http://www.w3.org/2000/svg"><path fill="#F0F3FA" d="M0 0h18v18H0z"/><path d="M6.05 4.97A4.84 4.84 0 0 1 10 4.11c.96.2 1.8.64 2.5 1.34a4.9 4.9 0 0 1 1.37 2.49c.26 1.19.1 2.32-.47 3.4a4.97 4.97 0 0 1-8 1.1.2.2 0 0 1 .01-.1c.1-.24.23-.52.4-.82.1-.14.25-.32.49-.52l.29-.31a2.07 2.07 0 0 1 .4-.38h.02v.05c-.18.21-.32.45-.4.7-.1.34-.05.58.15.72.2.12.4.09.6-.11a5.2 5.2 0 0 1 .55-.5l-.01-.02-.02-.02c-.03-.02-.04-.05-.03-.07 0-.01 0-.02.02-.03l.03-.01.22-.06v-.05h-.01a1.46 1.46 0 0 0-.64-.02.05.05 0 0 1-.03-.04v-.02l.04-.14c.05-.13.08-.22.08-.29.01-.4-.2-.6-.65-.57-.42.02-.78.2-1.08.54h-.01v-.01c.28-.44.7-.66 1.25-.66.4 0 .62.2.64.6a.05.05 0 0 0 .05.05h.03a2.11 2.11 0 0 0 .7-.47h.03l.03.02.01.02c.03.1.1.16.18.2h.02c.43.15.69.36.78.61l.01.02h.05v-.03a.73.73 0 0 0-.41-.56l-.02-.02v-.02l.01-.02h.03c.38.03.66.14.83.3h.03l.01-.02c-.01-.11-.12-.22-.32-.3a1.26 1.26 0 0 0-.44-.13H9.3l-.01-.03v-.03l.03-.01a1.91 1.91 0 0 1 .68-.12l.01-.01v-.04h-.02l-.57-.05-.06.01-.3.08h-.03L9 9.73V8.9l.03-.01a.03.03 0 0 1 .03.02l.1.5c0 .02 0 .03.02.04l.03.02a.07.07 0 0 0 .07-.01l.6-.48c.2-.15.53-.24 1-.3.46-.05.79-.15 1-.3a.1.1 0 0 0 .02-.04V8.3a.1.1 0 0 0-.02-.04.1.1 0 0 0-.05-.03l-.92-.16V8h.02l1.03.02a.1.1 0 0 0 .07-.03.1.1 0 0 0 .03-.03.1.1 0 0 0 0-.04c-.04-.41-.3-.66-.78-.74-.4-.07-.78-.14-1.14-.24a.8.8 0 0 0-.48.07l-.11.04a8.28 8.28 0 0 0-.85.34c-.57.13-.92.22-1.05.26a4.18 4.18 0 0 0-2.73 2.45 10.91 10.91 0 0 0-.37.99.06.06 0 0 1-.08 0 4.86 4.86 0 0 1-.45-2.61 4.76 4.76 0 0 1 2.02-3.52Zm1.75 6.14.02.03-.01.03-.03.02c-.07.02-.11 0-.14-.04v-.04h.16Zm3.46-3.7.02.01v.06c0 .02-.02.03-.03.05a.15.15 0 0 1-.04.04.15.15 0 0 1-.12 0h-.03a.15.15 0 0 1-.1-.13v-.06l.01-.02.01-.02h.03l.25.08Z" fill="#9CBF0D"/></svg>