<!-- by TradingView --><svg width="18" height="18" viewBox="0 0 18 18" xmlns="http://www.w3.org/2000/svg"><path fill="#006159" d="M0 0h18v18H0z"/><path d="M12.87 4c.44 0 .72.12.9.26a.79.79 0 0 1 .21.27l.02.02v.02l-.44.11-.01-.02a.36.36 0 0 0-.08-.09c-.09-.06-.26-.15-.6-.15-.45 0-.85.23-1.38.97-.29.4-.6.93-.97 1.61H13v5h-.5V7.5h-2.25l-.19.37-.63 1.22a23.27 23.27 0 0 1-2.24 3.73c-.63.77-1.2 1.18-1.85 1.18a2.23 2.23 0 0 1-1.14-.33.63.63 0 0 1-.2-.2l.4-.19.07.05.22.12c.19.07.42.13.65.13.4 0 .87-.25 1.48-1 .6-.75 1.3-1.94 2.2-3.67l.63-1.22.1-.19H8V7h2.01c.42-.78.78-1.39 1.1-1.84C11.66 4.4 12.18 4 12.87 4Z" fill="#fff"/></svg>