<!-- by TradingView --><svg width="18" height="18" viewBox="0 0 18 18" xmlns="http://www.w3.org/2000/svg"><path fill="#F0F3FA" d="M0 0h18v18H0z"/><path d="M15.03 10H14l.97 1H16l-.97-1ZM4.5 8.27s.78 1.48 1.25 2.42c.1.2.35.31.6.31H7L4.92 7h-.84L2 11h.65c.24 0 .5-.13.6-.31.47-.95 1.25-2.42 1.25-2.42ZM7.5 8h2.29l-2.1 2.25a.53.53 0 0 0-.19.41V11h4v-1H9.28l2.07-2.28c.1-.1.15-.25.15-.38V7h-4v1Z" fill="#0082E6"/><path d="M14 7a2 2 0 0 1 1.67 3.1l-.78-.66A1 1 0 0 0 14 8a1 1 0 0 0-.4 1.92l.03.08.84.94A2 2 0 1 1 14 7Z" fill="#1D252C"/></svg>