<!-- by TradingView --><svg width="18" height="18" viewBox="0 0 18 18" xmlns="http://www.w3.org/2000/svg"><path fill="#F2F2F2" d="M0 0h18v18H0z"/><path d="m14.68 9.29-2.65.73a.02.02 0 0 1-.03 0V6.2c0-.09-.04-.18-.1-.25a.47.47 0 0 0-.22-.16L5.32 4a.24.24 0 0 0-.23.04.23.23 0 0 0-.1.2v2.28c.01.09.05.18.1.25.06.08.14.13.23.16l4.44 1.24h.01a.02.02 0 0 1 0 .03l-.02.01H3.33a.34.34 0 0 0-.23.1.32.32 0 0 0-.1.23v2.27c0 .09.04.17.1.23.06.06.15.1.23.1H8v2.6a.23.23 0 0 0 .1.2.24.24 0 0 0 .23.04l6.36-1.78a.47.47 0 0 0 .22-.16c.06-.07.1-.16.1-.25V9.52a.23.23 0 0 0-.1-.2.24.24 0 0 0-.22-.03" fill="#97D700"/></svg>