<!-- by TradingView --><svg width="18" height="18" viewBox="0 0 18 18" xmlns="http://www.w3.org/2000/svg"><path fill="#F0F3FA" d="M0 0h18v18H0z"/><path d="M10 14H5.44C4.64 14 4 13.35 4 12.55V9.86c.83.7 1.87 1.14 3.04 1.14H10v3Zm4-3v1.55c0 .8-.65 1.45-1.44 1.45H12v-3h2Zm-2.4-7h.94c.8 0 1.46.65 1.46 1.45V9h-3.36C11.47 8.1 12 7.32 12 5.95c0-.69-.16-1.34-.4-1.95ZM5.43 4h4c.43.55.56 1.2.56 1.95C10 7.72 8.9 9 7.04 9 5.18 9 4.31 7.98 4 6.56V5.45c0-.13.02-.25.04-.36.02-.04.04-.08.04-.14C4.3 4.4 4.83 4 5.44 4Z" fill="#D40000"/></svg>