<!-- by TradingView --><svg width="18" height="18" viewBox="0 0 18 18" xmlns="http://www.w3.org/2000/svg"><path fill="#00FF6D" d="M0 0h18v18H0z"/><path d="M5.78 6.83a4.92 4.92 0 0 1 4.27-.53c.14.05-2.39-1.5-4.58 0-.69.46-1.98 1.66-1.26 4.17 0 0-.56-2.23 1.57-3.64Z"/><path d="M5.19 9.74a4.92 4.92 0 0 1 2.64-3.4c.14-.05-2.74.64-3.24 3.24-.16.82-.22 2.58 2.06 3.84 0 0-1.97-1.17-1.46-3.68Z"/><path d="M6.83 12.22a4.92 4.92 0 0 1-.53-4.27c.05-.14-1.5 2.39 0 4.58.46.69 1.66 1.98 4.17 1.26 0 0-2.23.56-3.64-1.57Z"/><path d="M9.74 12.81a4.92 4.92 0 0 1-3.4-2.64c-.05-.14.64 2.74 3.24 3.24.82.16 2.58.22 3.84-2.06 0 0-1.17 1.97-3.68 1.46Z"/><path d="M12.22 11.17a4.92 4.92 0 0 1-4.27.53c-.14-.05 2.39 1.5 4.58 0 .69-.46 1.98-1.66 1.26-4.17 0 0 .56 2.23-1.57 3.64Z"/><path d="M12.81 8.26a4.92 4.92 0 0 1-2.64 3.4c-.14.05 2.74-.64 3.24-3.24.16-.82.22-2.58-2.06-3.84 0 0 1.97 1.17 1.46 3.68Z"/><path d="M11.17 5.78a4.92 4.92 0 0 1 .53 4.27c-.05.14 1.5-2.39 0-4.58-.46-.69-1.66-1.98-4.17-1.26 0 0 2.23-.56 3.64 1.57Z"/><path d="M8.26 5.19c1.98.4 3.1 1.94 3.4 2.64.05.14-.64-2.74-3.24-3.24-.82-.16-2.58-.22-3.84 2.06 0 0 1.17-1.97 3.68-1.46Z"/></svg>