<!-- by TradingView --><svg width="18" height="18" viewBox="0 0 18 18" xmlns="http://www.w3.org/2000/svg"><path fill="#0C2E2D" d="M0 0h18v18H0z"/><path d="M4.03 6h2.2c.4 0 .74.15 1.01.42.35.35.47.91.24 1.36a1.34 1.34 0 0 1-.85.7.03.03 0 0 0 0 .04l1.16 1.84c.42.67 1.06 1.02 1.85.85a1.35 1.35 0 0 0 .63-.3h.01l.55.49a.02.02 0 0 1 0 .03c-.32.28-.7.46-1.12.53-.62.1-1.19-.01-1.7-.36a2.7 2.7 0 0 1-.8-.8c-.61-.96-.98-1.54-1.1-1.75a.67.67 0 0 0-.63-.33 42.22 42.22 0 0 1-.73.02v2.24a.02.02 0 0 1 0 .01.01.01 0 0 1-.02 0H4V6.01h.03Zm.71.73.01 1.28v.02H6.2a.67.67 0 0 0 .66-.67.66.66 0 0 0-.67-.66H4.77a.02.02 0 0 0-.02.01.02.02 0 0 0 0 .02Z" fill="#D7CFB9"/><path d="M9.74 6h-.72L9 6.02v4.96c0 .01 0 .02.02.02h.72s.02 0 .02-.02V6.02L9.74 6ZM12.8 6a3.1 3.1 0 0 1 .2.01v.01l2 4.96a.02.02 0 0 1 0 .02h-.78l-.02-.03-.4-1.02a.07.07 0 0 0-.03-.03 55.76 55.76 0 0 1-1.93 0 .07.07 0 0 0-.02.03l-.41 1.03-.02.01-.02.01h-.75l-.01-.01v-.01l2-4.96v-.01h.01L12.8 6Zm-.65 3.1v.03h1.31a.03.03 0 0 0 0-.03l-.64-1.6V7.5h-.03v.01l-.64 1.6Z" fill="#D7CFB9"/></svg>