<!-- by TradingView --><svg width="18" height="18" viewBox="0 0 18 18" xmlns="http://www.w3.org/2000/svg"><path fill="url(#a0ljeeane)" d="M0 0h18v18H0z"/><path d="M4.5 10v1.5L6 12V8l-2 2h.5Z" fill="#7E2222"/><path d="M7 8.67 6 8v4l1-.33v-3Z" fill="#D42126"/><path d="M7 7.5H6L9 4v10l-2-1V7.5Z" fill="#7E2222"/><path d="M12 7.5 9 4v10l2-1V7.5h1ZM14 10l-2-2v4l1.5-.5V10h.5Z" fill="#D42126"/><path d="m12 8-1 1v2.67l1 .33V8Z" fill="#7E2222"/><defs><linearGradient id="a0ljeeane" x1="3.35" y1="3.12" x2="21.9" y2="24.43" gradientUnits="userSpaceOnUse"><stop stop-color="#1A1E21"/><stop offset="1" stop-color="#06060A"/></linearGradient></defs></svg>