<!-- by TradingView --><svg width="18" height="18" viewBox="0 0 18 18" xmlns="http://www.w3.org/2000/svg"><path fill="#F0F3FA" d="M0 0h18v18H0z"/><path d="M12.91 7.19a.05.05 0 0 1 .08 0l.01.03v4.7c0 .02 0 .04-.03.05a.09.09 0 0 1-.06.03h-7.4l-.01-.03a.04.04 0 0 1 0-.05L7 10.56a.05.05 0 0 0 0-.06.05.05 0 0 0-.01-.03H3.04l-.02-.01-.02-.02a.04.04 0 0 1 .01-.04l6.5-6.38A.06.06 0 0 1 9.58 4c.01 0 .02.01.02.03v.03l-1.75 5.5v.03l.03.02a.06.06 0 0 0 .07 0c.09-.1.17-.2.26-.28a170.6 170.6 0 0 1 3.82-3.7c.03-.03.05-.03.07 0a.03.03 0 0 1 0 .03L11.1 8.86v.02l.02.02a.04.04 0 0 0 .04 0l1.76-1.71Z" fill="#D1D2D4"/></svg>