<!-- by TradingView --><svg width="18" height="18" viewBox="0 0 18 18" xmlns="http://www.w3.org/2000/svg"><path fill="#0F2437" d="M0 0h18v18H0z"/><path d="M5.97 12c-.69 0-1.46-.2-1.97-.7l.32-.84c.44.4 1.06.64 1.65.64.5 0 1.11-.16 1.11-.76 0-.59-.72-.75-1.17-.87-.93-.24-1.8-.63-1.8-1.73C4.1 6.6 5.07 6 6.13 6c.6 0 1.22.18 1.66.52l-.3.84a2.46 2.46 0 0 0-1.37-.46c-.5 0-1.09.2-1.09.8 0 .6.7.73 1.17.86.92.24 1.8.6 1.8 1.7C8 11.42 7.03 12 5.97 12ZM10 12V6h1.97C13.22 6 14 6.78 14 8s-.78 2-2.03 2h-1.48l.51-.62V12h-1Zm1-2.5-.47-.5h1.43c.8 0 1.04-.26 1.04-1 0-.76-.21-1-1-1h-1.43l.43-.6v3.1Z" fill="#FDFDFD"/></svg>