<!-- by TradingView --><svg width="18" height="18" viewBox="0 0 18 18" xmlns="http://www.w3.org/2000/svg"><path fill="#F0F3FA" d="M0 0h18v18H0z"/><path d="M3 10.6v-.13l1.32-.02a.1.1 0 0 1 .07.02l.04.06c.1.48.38.8.82.96.38.14.8.14 1.26 0 .3-.09.5-.26.6-.52.12-.28.06-.53-.16-.77-.2-.21-.53-.37-.97-.47a8.63 8.63 0 0 1-1.78-.57c-.86-.4-1.24-1.1-1.14-2.1.08-.82.5-1.4 1.28-1.76C5 5 5.72 4.92 6.5 5.08c1.15.23 1.83.96 2.03 2.18a.1.1 0 0 1-.02.08.1.1 0 0 1-.06.03H7.6a.54.54 0 0 1-.27-.07.58.58 0 0 1-.2-.2l-.05-.08c-.14-.25-.27-.41-.4-.48a2.08 2.08 0 0 0-1.1-.25c-.46.02-.78.2-.97.54-.33.6.06 1.05 1.2 1.38l.28.09A6.1 6.1 0 0 1 7.85 9c.55.4.81.98.8 1.74-.02.38-.14.77-.36 1.14-.23.39-.5.65-.82.78-.98.4-1.9.44-2.77.1A2.61 2.61 0 0 1 3 10.62ZM11.54 5.05a6 6 0 0 1 1.4 0c.02.02.04.04.04.07l2.52 7.8v.05l-.03.02-.02.01h-1.38c-.02 0-.04 0-.06-.02a.13.13 0 0 1-.05-.07l-.46-1.45a.15.15 0 0 0-.05-.07.13.13 0 0 0-.08-.03h-2.62c-.02 0-.05 0-.07.02a.13.13 0 0 0-.04.06l-.45 1.48-.04.06a.1.1 0 0 1-.06.02H8.67l-.02-.03v-.05l2.4-7.47a.54.54 0 0 1 .49-.4Zm.51 2.05-.02.03-.88 2.88v.05l.02.02h.02l1.76.01h.03l.01-.02a.06.06 0 0 0 0-.05l-.87-2.9-.02-.02-.02-.01-.03.01Z" fill="#001B5A"/></svg>