<!-- by TradingView --><svg width="18" height="18" viewBox="0 0 18 18" xmlns="http://www.w3.org/2000/svg"><path fill="#002029" d="M0 0h18v18H0z"/><path d="M8.39 5.25h.01v.02l-.28.94-.01.02-.02.01a3.07 3.07 0 0 0-2.36 1.88 3.07 3.07 0 0 0 .7 3.46 2.95 2.95 0 0 0 3.42.66 3.1 3.1 0 0 0 1.82-2.44l.02-.02.93-.3.02.01a.02.02 0 0 1 0 .02A4.11 4.11 0 0 1 9 13.47a3.81 3.81 0 0 1-3.3-1.16A3.93 3.93 0 0 1 4.53 9 4.07 4.07 0 0 1 8.4 5.25ZM13.89 4l.07.05c.02.01.03.04.04.07v.07L12.6 8.66c0 .03-.02.05-.03.07a.15.15 0 0 1-.07.03l-4.64 1.48a.15.15 0 0 1-.2-.1l.01-.09 1.44-4.66a.15.15 0 0 1 .1-.1l4.6-1.28c.02-.01.05-.01.07 0Zm-4 2.05a.07.07 0 0 0-.05.04L9 8.81a.07.07 0 0 0 .02.07.07.07 0 0 0 .07.02l2.75-.87a.07.07 0 0 0 .04-.05l.8-2.6v-.04a.08.08 0 0 0-.01-.04.07.07 0 0 0-.07-.02l-2.7.77Z" fill="#fff"/></svg>